%TF.GenerationSoftware,KiCad,Pcbnew,10.0.0*%
%TF.CreationDate,2026-05-28T16:28:16-07:00*%
%TF.ProjectId,pixel_interface_v3,70697865-6c5f-4696-9e74-657266616365,rev?*%
%TF.SameCoordinates,Original*%
%TF.FileFunction,Copper,L2,Bot*%
%TF.FilePolarity,Positive*%
%FSLAX46Y46*%
G04 Gerber Fmt 4.6, Leading zero omitted, Abs format (unit mm)*
G04 Created by KiCad (PCBNEW 10.0.0) date 2026-05-28 16:28:16*
%MOMM*%
%LPD*%
G01*
G04 APERTURE LIST*
%TA.AperFunction,ComponentPad*%
%ADD10R,1.700000X1.700000*%
%TD*%
%TA.AperFunction,ComponentPad*%
%ADD11O,1.700000X1.700000*%
%TD*%
%TA.AperFunction,ComponentPad*%
%ADD12R,1.800000X1.800000*%
%TD*%
%TA.AperFunction,ComponentPad*%
%ADD13C,1.800000*%
%TD*%
%TA.AperFunction,ComponentPad*%
%ADD14C,1.700000*%
%TD*%
G04 APERTURE END LIST*
D10*
%TO.P,J1,1,Pin_1_1*%
%TO.N,/A0*%
X150800000Y-97460000D03*
D11*
%TO.P,J1,2,Pin_2_2*%
%TO.N,/A1*%
X153340000Y-97460000D03*
%TO.P,J1,3,Pin_3_3*%
%TO.N,/A2*%
X155880000Y-97460000D03*
%TO.P,J1,4,Pin_4_4*%
%TO.N,/A3*%
X158420000Y-97460000D03*
%TO.P,J1,5,Pin_5_5*%
%TO.N,/SDA{slash}A4*%
X160960000Y-97460000D03*
%TO.P,J1,6,Pin_6_6*%
%TO.N,/SCL{slash}A5*%
X163500000Y-97460000D03*
%TD*%
D10*
%TO.P,J3,1,Pin_1_1*%
%TO.N,/7*%
X145720000Y-49200000D03*
D11*
%TO.P,J3,2,Pin_2_2*%
%TO.N,/\u002A6*%
X148260000Y-49200000D03*
%TO.P,J3,3,Pin_3_3*%
%TO.N,/\u002A5*%
X150800000Y-49200000D03*
%TO.P,J3,4,Pin_4_4*%
%TO.N,/4*%
X153340000Y-49200000D03*
%TO.P,J3,5,Pin_5_5*%
%TO.N,/\u002A3*%
X155880000Y-49200000D03*
%TO.P,J3,6,Pin_6_6*%
%TO.N,/2*%
X158420000Y-49200000D03*
%TO.P,J3,7,Pin_7_7*%
%TO.N,/TX{slash}1*%
X160960000Y-49200000D03*
%TO.P,J3,8,Pin_8_8*%
%TO.N,/RX{slash}0*%
X163500000Y-49200000D03*
%TD*%
D12*
%TO.P,D1,1,K_1*%
%TO.N,Net-(D1-K)*%
X142595000Y-68910000D03*
D13*
%TO.P,D1,2,A_2*%
%TO.N,/\u002A3*%
X145135000Y-68910000D03*
%TD*%
D10*
%TO.P,J5,1,Pin_1_1*%
%TO.N,/4*%
X155490000Y-70080000D03*
D14*
%TO.P,J5,2,Pin_2_2*%
X158030000Y-70080000D03*
%TO.P,J5,3,Pin_3_3*%
%TO.N,/\u002A5*%
X155490000Y-72620000D03*
%TO.P,J5,4,Pin_4_4*%
X158030000Y-72620000D03*
%TO.P,J5,5,Pin_5_5*%
%TO.N,/\u002A6*%
X155490000Y-75160000D03*
%TO.P,J5,6,Pin_6_6*%
X158030000Y-75160000D03*
%TO.P,J5,7,Pin_7_7*%
%TO.N,/7*%
X155490000Y-77700000D03*
%TO.P,J5,8,Pin_8_8*%
X158030000Y-77700000D03*
%TO.P,J5,9,Pin_9_9*%
%TO.N,GND*%
X155490000Y-80240000D03*
%TO.P,J5,10,Pin_10_10*%
X158030000Y-80240000D03*
%TD*%
D10*
%TO.P,J4,1,Pin_1_1*%
%TO.N,unconnected-(J4-Pin_1-Pad1)*%
X136580000Y-49090000D03*
D14*
%TO.P,J4,2,Pin_2_2*%
%TO.N,unconnected-(J4-Pin_2-Pad2)*%
X139120000Y-49090000D03*
%TO.P,J4,3,Pin_3_3*%
%TO.N,unconnected-(J4-Pin_3-Pad3)*%
X141660000Y-49090000D03*
%TD*%
D10*
%TO.P,J2,1,Pin_1_1*%
%TO.N,+5V*%
X138100000Y-97460000D03*
D14*
%TO.P,J2,2,Pin_2_2*%
%TO.N,GND*%
X140640000Y-97460000D03*
%TO.P,J2,3,Pin_3_3*%
X143180000Y-97460000D03*
%TO.P,J2,4,Pin_4_4*%
%TO.N,VCC*%
X145720000Y-97460000D03*
%TD*%
%TA.AperFunction,Conductor*%
%TO.N,GND*%
G36*
X156839173Y-78377483D02*
G01*
X156865730Y-78408132D01*
X156868103Y-78412005D01*
X156868106Y-78412009D01*
X156993794Y-78585004D01*
X157144996Y-78736206D01*
X157317991Y-78861894D01*
X157322680Y-78864283D01*
X157373478Y-78912254D01*
X157390276Y-78980074D01*
X157367742Y-79046210D01*
X157326205Y-79082209D01*
X157326590Y-79082838D01*
X157322804Y-79085157D01*
X157322702Y-79085246D01*
X157322449Y-79085374D01*
X157322440Y-79085380D01*
X157268282Y-79124727D01*
X157268282Y-79124728D01*
X157900591Y-79757037D01*
X157837007Y-79774075D01*
X157722993Y-79839901D01*
X157629901Y-79932993D01*
X157564075Y-80047007D01*
X157547037Y-80110591D01*
X156914728Y-79478282D01*
X156914727Y-79478282D01*
X156875380Y-79532440D01*
X156870483Y-79542051D01*
X156822506Y-79592845D01*
X156754684Y-79609638D01*
X156688550Y-79587098D01*
X156649516Y-79542048D01*
X156644626Y-79532452D01*
X156605270Y-79478282D01*
X156605269Y-79478282D01*
X155972962Y-80110590D01*
X155955925Y-80047007D01*
X155890099Y-79932993D01*
X155797007Y-79839901D01*
X155682993Y-79774075D01*
X155619409Y-79757037D01*
X156251716Y-79124728D01*
X156197547Y-79085373D01*
X156197545Y-79085371D01*
X156197308Y-79085251D01*
X156197234Y-79085181D01*
X156193396Y-79082829D01*
X156193890Y-79082022D01*
X156146515Y-79037274D01*
X156129724Y-78969451D01*
X156152266Y-78903318D01*
X156197319Y-78864283D01*
X156202009Y-78861894D01*
X156375004Y-78736206D01*
X156526206Y-78585004D01*
X156651894Y-78412009D01*
X156651896Y-78412004D01*
X156654270Y-78408132D01*
X156706080Y-78361254D01*
X156775009Y-78349829D01*
X156839173Y-78377483D01*
G37*
%TD.AperFunction*%
%TA.AperFunction,Conductor*%
G36*
X144238115Y-49127883D02*
G01*
X144305055Y-49147898D01*
X144350548Y-49200928D01*
X144361500Y-49251881D01*
X144361500Y-50098654D01*
X144368011Y-50159202D01*
X144368011Y-50159204D01*
X144402584Y-50251894D01*
X144419111Y-50296204D01*
X144506739Y-50413261D01*
X144623796Y-50500889D01*
X144760799Y-50551989D01*
X144788050Y-50554918D01*
X144821345Y-50558499D01*
X144821362Y-50558500D01*
X146618638Y-50558500D01*
X146618654Y-50558499D01*
X146645692Y-50555591D01*
X146679201Y-50551989D01*
X146816204Y-50500889D01*
X146933261Y-50413261D01*
X147020889Y-50296204D01*
X147065957Y-50175371D01*
X147107827Y-50119442D01*
X147173291Y-50095025D01*
X147241564Y-50109877D01*
X147269818Y-50131028D01*
X147374996Y-50236206D01*
X147547991Y-50361894D01*
X147604895Y-50390888D01*
X147738516Y-50458972D01*
X147738519Y-50458973D01*
X147840200Y-50492010D01*
X147941884Y-50525049D01*
X148153084Y-50558500D01*
X148153085Y-50558500D01*
X148366915Y-50558500D01*
X148366916Y-50558500D01*
X148578116Y-50525049D01*
X148781483Y-50458972D01*
X148972009Y-50361894D01*
X149145004Y-50236206D01*
X149296206Y-50085004D01*
X149421894Y-49912009D01*
X149421896Y-49912004D01*
X149424270Y-49908132D01*
X149476080Y-49861254D01*
X149545009Y-49849829D01*
X149609173Y-49877483D01*
X149635730Y-49908132D01*
X149638103Y-49912005D01*
X149638106Y-49912009D01*
X149763794Y-50085004D01*
X149914996Y-50236206D01*
X150087991Y-50361894D01*
X150144895Y-50390888D01*
X150278516Y-50458972D01*
X150278519Y-50458973D01*
X150380200Y-50492010D01*
X150481884Y-50525049D01*
X150693084Y-50558500D01*
X150693085Y-50558500D01*
X150906915Y-50558500D01*
X150906916Y-50558500D01*
X151118116Y-50525049D01*
X151321483Y-50458972D01*
X151512009Y-50361894D01*
X151685004Y-50236206D01*
X151836206Y-50085004D01*
X151961894Y-49912009D01*
X151961896Y-49912004D01*
X151964270Y-49908132D01*
X152016080Y-49861254D01*
X152085009Y-49849829D01*
X152149173Y-49877483D01*
X152175730Y-49908132D01*
X152178103Y-49912005D01*
X152178106Y-49912009D01*
X152303794Y-50085004D01*
X152454996Y-50236206D01*
X152627991Y-50361894D01*
X152684895Y-50390888D01*
X152818516Y-50458972D01*
X152818519Y-50458973D01*
X152920200Y-50492010D01*
X153021884Y-50525049D01*
X153233084Y-50558500D01*
X153233085Y-50558500D01*
X153446915Y-50558500D01*
X153446916Y-50558500D01*
X153658116Y-50525049D01*
X153861483Y-50458972D01*
X154052009Y-50361894D01*
X154225004Y-50236206D01*
X154376206Y-50085004D01*
X154501894Y-49912009D01*
X154501896Y-49912004D01*
X154504270Y-49908132D01*
X154556080Y-49861254D01*
X154625009Y-49849829D01*
X154689173Y-49877483D01*
X154715730Y-49908132D01*
X154718103Y-49912005D01*
X154718106Y-49912009D01*
X154843794Y-50085004D01*
X154994996Y-50236206D01*
X155167991Y-50361894D01*
X155224895Y-50390888D01*
X155358516Y-50458972D01*
X155358519Y-50458973D01*
X155460200Y-50492010D01*
X155561884Y-50525049D01*
X155773084Y-50558500D01*
X155773085Y-50558500D01*
X155986915Y-50558500D01*
X155986916Y-50558500D01*
X156198116Y-50525049D01*
X156401483Y-50458972D01*
X156592009Y-50361894D01*
X156765004Y-50236206D01*
X156916206Y-50085004D01*
X157041894Y-49912009D01*
X157041896Y-49912004D01*
X157044270Y-49908132D01*
X157096080Y-49861254D01*
X157165009Y-49849829D01*
X157229173Y-49877483D01*
X157255730Y-49908132D01*
X157258103Y-49912005D01*
X157258106Y-49912009D01*
X157383794Y-50085004D01*
X157534996Y-50236206D01*
X157707991Y-50361894D01*
X157764895Y-50390888D01*
X157898516Y-50458972D01*
X157898519Y-50458973D01*
X158000200Y-50492010D01*
X158101884Y-50525049D01*
X158313084Y-50558500D01*
X158313085Y-50558500D01*
X158526915Y-50558500D01*
X158526916Y-50558500D01*
X158738116Y-50525049D01*
X158941483Y-50458972D01*
X159132009Y-50361894D01*
X159305004Y-50236206D01*
X159456206Y-50085004D01*
X159581894Y-49912009D01*
X159581896Y-49912004D01*
X159584270Y-49908132D01*
X159636080Y-49861254D01*
X159705009Y-49849829D01*
X159769173Y-49877483D01*
X159795730Y-49908132D01*
X159798103Y-49912005D01*
X159798106Y-49912009D01*
X159923794Y-50085004D01*
X160074996Y-50236206D01*
X160247991Y-50361894D01*
X160304895Y-50390888D01*
X160438516Y-50458972D01*
X160438519Y-50458973D01*
X160540200Y-50492010D01*
X160641884Y-50525049D01*
X160853084Y-50558500D01*
X160853085Y-50558500D01*
X161066915Y-50558500D01*
X161066916Y-50558500D01*
X161278116Y-50525049D01*
X161481483Y-50458972D01*
X161672009Y-50361894D01*
X161845004Y-50236206D01*
X161996206Y-50085004D01*
X162121894Y-49912009D01*
X162121896Y-49912004D01*
X162124270Y-49908132D01*
X162176080Y-49861254D01*
X162245009Y-49849829D01*
X162309173Y-49877483D01*
X162335730Y-49908132D01*
X162338103Y-49912005D01*
X162338106Y-49912009D01*
X162463794Y-50085004D01*
X162614996Y-50236206D01*
X162787991Y-50361894D01*
X162844895Y-50390888D01*
X162978516Y-50458972D01*
X162978519Y-50458973D01*
X163080200Y-50492010D01*
X163181884Y-50525049D01*
X163393084Y-50558500D01*
X163393085Y-50558500D01*
X163606914Y-50558500D01*
X163606916Y-50558500D01*
X163735996Y-50538055D01*
X163805287Y-50547009D01*
X163858739Y-50592005D01*
X163879379Y-50658757D01*
X163879389Y-50659716D01*
X163903214Y-54299688D01*
X163883969Y-54366855D01*
X163831466Y-54412955D01*
X163779217Y-54424500D01*
X160214982Y-54424500D01*
X160187231Y-54435995D01*
X160165995Y-54457231D01*
X160165994Y-54457232D01*
X160165994Y-54457233D01*
X160154500Y-54484982D01*
X160154500Y-60484982D01*
X160154500Y-60515018D01*
X160165994Y-60542767D01*
X160187233Y-60564006D01*
X160214982Y-60575500D01*
X160214984Y-60575500D01*
X164704067Y-60575500D01*
X164771106Y-60595185D01*
X164782186Y-60603202D01*
X167814211Y-63062855D01*
X167853873Y-63120376D01*
X167860092Y-63158959D01*
X167861621Y-64134383D01*
X167842041Y-64201453D01*
X167789309Y-64247290D01*
X167720166Y-64257342D01*
X167656565Y-64228417D01*
X167618699Y-64169698D01*
X167615148Y-64153974D01*
X167601090Y-64065215D01*
X167601090Y-64065214D01*
X167523239Y-63825616D01*
X167481747Y-63744184D01*
X167408870Y-63601155D01*
X167389952Y-63575117D01*
X167260798Y-63397350D01*
X167260794Y-63397345D01*
X167082654Y-63219205D01*
X167082649Y-63219201D01*
X166878848Y-63071132D01*
X166878847Y-63071131D01*
X166878845Y-63071130D01*
X166808747Y-63035413D01*
X166654383Y-62956760D01*
X166414785Y-62878910D01*
X166165962Y-62839500D01*
X165914038Y-62839500D01*
X165789626Y-62859205D01*
X165665214Y-62878910D01*
X165425616Y-62956760D01*
X165201151Y-63071132D01*
X164997350Y-63219201D01*
X164997345Y-63219205D01*
X164819205Y-63397345D01*
X164819201Y-63397350D01*
X164671132Y-63601151D01*
X164556760Y-63825616D01*
X164478910Y-64065214D01*
X164478910Y-64065215D01*
X164439500Y-64314038D01*
X164439500Y-64565962D01*
X164453904Y-64656904D01*
X164478910Y-64814785D01*
X164556760Y-65054383D01*
X164671132Y-65278848D01*
X164819201Y-65482649D01*
X164819205Y-65482654D01*
X164997345Y-65660794D01*
X164997350Y-65660798D01*
X165175117Y-65789952D01*
X165201155Y-65808870D01*
X165344184Y-65881747D01*
X165425616Y-65923239D01*
X165425618Y-65923239D01*
X165425621Y-65923241D01*
X165665215Y-66001090D01*
X165914038Y-66040500D01*
X165914039Y-66040500D01*
X166165961Y-66040500D01*
X166165962Y-66040500D01*
X166414785Y-66001090D01*
X166654379Y-65923241D01*
X166878845Y-65808870D01*
X167082656Y-65660793D01*
X167260793Y-65482656D01*
X167408870Y-65278845D01*
X167523241Y-65054379D01*
X167601090Y-64814785D01*
X167616096Y-64720037D01*
X167646025Y-64656904D01*
X167705336Y-64619972D01*
X167775199Y-64620970D01*
X167833431Y-64659579D01*
X167861546Y-64723543D01*
X167862569Y-64739242D01*
X167911577Y-96003911D01*
X167891997Y-96070981D01*
X167876380Y-96090650D01*
X166267141Y-97741889D01*
X166206255Y-97776161D01*
X166176787Y-97779334D01*
X164970876Y-97764254D01*
X164904088Y-97743733D01*
X164858997Y-97690361D01*
X164849919Y-97621089D01*
X164858500Y-97566916D01*
X164858500Y-97353084D01*
X164825049Y-97141884D01*
X164758972Y-96938517D01*
X164758972Y-96938516D01*
X164703495Y-96829638D01*
X164661894Y-96747991D01*
X164536206Y-96574996D01*
X164385004Y-96423794D01*
X164212009Y-96298106D01*
X164021483Y-96201027D01*
X164021480Y-96201026D01*
X163818117Y-96134951D01*
X163712516Y-96118225D01*
X163606916Y-96101500D01*
X163393084Y-96101500D01*
X163322684Y-96112650D01*
X163181882Y-96134951D01*
X162978519Y-96201026D01*
X162978516Y-96201027D01*
X162787990Y-96298106D01*
X162614993Y-96423796D01*
X162463796Y-96574993D01*
X162338105Y-96747991D01*
X162335727Y-96751873D01*
X162283914Y-96798748D01*
X162214984Y-96810169D01*
X162150822Y-96782512D01*
X162124273Y-96751873D01*
X162121894Y-96747991D01*
X162085778Y-96698282D01*
X161996206Y-96574996D01*
X161845004Y-96423794D01*
X161672009Y-96298106D01*
X161481483Y-96201027D01*
X161481480Y-96201026D01*
X161278117Y-96134951D01*
X161172516Y-96118225D01*
X161066916Y-96101500D01*
X160853084Y-96101500D01*
X160782684Y-96112650D01*
X160641882Y-96134951D01*
X160438519Y-96201026D01*
X160438516Y-96201027D01*
X160247990Y-96298106D01*
X160074993Y-96423796D01*
X159923796Y-96574993D01*
X159798105Y-96747991D01*
X159795727Y-96751873D01*
X159743914Y-96798748D01*
X159674984Y-96810169D01*
X159610822Y-96782512D01*
X159584273Y-96751873D01*
X159581894Y-96747991D01*
X159545778Y-96698282D01*
X159456206Y-96574996D01*
X159305004Y-96423794D01*
X159132009Y-96298106D01*
X158941483Y-96201027D01*
X158941480Y-96201026D01*
X158738117Y-96134951D01*
X158632516Y-96118225D01*
X158526916Y-96101500D01*
X158313084Y-96101500D01*
X158242684Y-96112650D01*
X158101882Y-96134951D01*
X157898519Y-96201026D01*
X157898516Y-96201027D01*
X157707990Y-96298106D01*
X157534993Y-96423796D01*
X157383796Y-96574993D01*
X157258105Y-96747991D01*
X157255727Y-96751873D01*
X157203914Y-96798748D01*
X157134984Y-96810169D01*
X157070822Y-96782512D01*
X157044273Y-96751873D01*
X157041894Y-96747991D01*
X157005778Y-96698282D01*
X156916206Y-96574996D01*
X156765004Y-96423794D01*
X156592009Y-96298106D01*
X156401483Y-96201027D01*
X156401480Y-96201026D01*
X156198117Y-96134951D01*
X156092516Y-96118225D01*
X155986916Y-96101500D01*
X155773084Y-96101500D01*
X155702684Y-96112650D01*
X155561882Y-96134951D01*
X155358519Y-96201026D01*
X155358516Y-96201027D01*
X155167990Y-96298106D01*
X154994993Y-96423796D01*
X154843796Y-96574993D01*
X154718105Y-96747991D01*
X154715727Y-96751873D01*
X154663914Y-96798748D01*
X154594984Y-96810169D01*
X154530822Y-96782512D01*
X154504273Y-96751873D01*
X154501894Y-96747991D01*
X154465778Y-96698282D01*
X154376206Y-96574996D01*
X154225004Y-96423794D01*
X154052009Y-96298106D01*
X153861483Y-96201027D01*
X153861480Y-96201026D01*
X153658117Y-96134951D01*
X153552516Y-96118225D01*
X153446916Y-96101500D01*
X153233084Y-96101500D01*
X153162684Y-96112650D01*
X153021882Y-96134951D01*
X152818519Y-96201026D01*
X152818516Y-96201027D01*
X152627990Y-96298106D01*
X152454997Y-96423793D01*
X152349818Y-96528972D01*
X152288495Y-96562456D01*
X152218803Y-96557472D01*
X152162870Y-96515600D01*
X152145958Y-96484629D01*
X152100889Y-96363796D01*
X152013261Y-96246739D01*
X151896204Y-96159111D01*
X151895172Y-96158726D01*
X151759203Y-96108011D01*
X151698654Y-96101500D01*
X151698638Y-96101500D01*
X149901362Y-96101500D01*
X149901345Y-96101500D01*
X149840797Y-96108011D01*
X149840795Y-96108011D01*
X149703795Y-96159111D01*
X149586739Y-96246739D01*
X149499111Y-96363795D01*
X149448011Y-96500795D01*
X149448011Y-96500797D01*
X149441500Y-96561345D01*
X149441500Y-97444501D01*
X149421815Y-97511540D01*
X149369011Y-97557295D01*
X149315950Y-97568491D01*
X147200950Y-97542043D01*
X147134161Y-97521522D01*
X147089070Y-97468150D01*
X147078500Y-97418053D01*
X147078500Y-97353084D01*
X147045049Y-97141884D01*
X146978972Y-96938517D01*
X146978972Y-96938516D01*
X146923495Y-96829638D01*
X146881894Y-96747991D01*
X146756206Y-96574996D01*
X146605004Y-96423794D01*
X146432009Y-96298106D01*
X146241483Y-96201027D01*
X146241480Y-96201026D01*
X146038117Y-96134951D01*
X145932516Y-96118225D01*
X145826916Y-96101500D01*
X145613084Y-96101500D01*
X145542684Y-96112650D01*
X145401882Y-96134951D01*
X145198519Y-96201026D01*
X145198516Y-96201027D01*
X145007990Y-96298106D01*
X144834993Y-96423796D01*
X144683796Y-96574993D01*
X144558103Y-96747994D01*
X144555709Y-96752693D01*
X144507731Y-96803485D01*
X144439908Y-96820275D01*
X144373775Y-96797732D01*
X144337804Y-96756215D01*
X144337171Y-96756604D01*
X144334826Y-96752778D01*
X144334743Y-96752682D01*
X144334624Y-96752449D01*
X144295270Y-96698282D01*
X144295269Y-96698282D01*
X143662962Y-97330588D01*
X143645925Y-97267007D01*
X143580099Y-97152993D01*
X143487007Y-97059901D01*
X143372993Y-96994075D01*
X143309409Y-96977037D01*
X143941716Y-96344728D01*
X143887550Y-96305375D01*
X143698217Y-96208904D01*
X143496129Y-96143242D01*
X143286246Y-96110000D01*
X143073754Y-96110000D01*
X142863872Y-96143242D01*
X142863869Y-96143242D01*
X142661782Y-96208904D01*
X142472439Y-96305380D01*
X142418282Y-96344727D01*
X142418282Y-96344728D01*
X143050591Y-96977037D01*
X142987007Y-96994075D01*
X142872993Y-97059901D01*
X142779901Y-97152993D01*
X142714075Y-97267007D01*
X142697037Y-97330591D01*
X142064728Y-96698282D01*
X142064727Y-96698282D01*
X142025380Y-96752440D01*
X142020483Y-96762051D01*
X141972506Y-96812845D01*
X141904684Y-96829638D01*
X141838550Y-96807098D01*
X141799516Y-96762048D01*
X141794626Y-96752452D01*
X141755270Y-96698282D01*
X141755269Y-96698282D01*
X141122962Y-97330588D01*
X141105925Y-97267007D01*
X141040099Y-97152993D01*
X140947007Y-97059901D01*
X140832993Y-96994075D01*
X140769406Y-96977036D01*
X141401716Y-96344728D01*
X141347550Y-96305375D01*
X141158217Y-96208904D01*
X140956129Y-96143242D01*
X140746246Y-96110000D01*
X140533753Y-96110000D01*
X140345965Y-96139742D01*
X140276672Y-96130787D01*
X140223220Y-96085791D01*
X140208036Y-96053684D01*
X139315640Y-93148363D01*
X139310181Y-93110790D01*
X139318281Y-92254038D01*
X164439500Y-92254038D01*
X164439500Y-92505961D01*
X164478910Y-92754785D01*
X164556760Y-92994383D01*
X164671132Y-93218848D01*
X164819201Y-93422649D01*
X164819205Y-93422654D01*
X164997345Y-93600794D01*
X164997350Y-93600798D01*
X165175117Y-93729952D01*
X165201155Y-93748870D01*
X165344184Y-93821747D01*
X165425616Y-93863239D01*
X165425618Y-93863239D01*
X165425621Y-93863241D01*
X165665215Y-93941090D01*
X165914038Y-93980500D01*
X165914039Y-93980500D01*
X166165961Y-93980500D01*
X166165962Y-93980500D01*
X166414785Y-93941090D01*
X166654379Y-93863241D01*
X166878845Y-93748870D01*
X167082656Y-93600793D01*
X167260793Y-93422656D01*
X167408870Y-93218845D01*
X167523241Y-92994379D01*
X167601090Y-92754785D01*
X167640500Y-92505962D01*
X167640500Y-92254038D01*
X167601090Y-92005215D01*
X167523241Y-91765621D01*
X167523239Y-91765618D01*
X167523239Y-91765616D01*
X167481747Y-91684184D01*
X167408870Y-91541155D01*
X167389952Y-91515117D01*
X167260798Y-91337350D01*
X167260794Y-91337345D01*
X167082654Y-91159205D01*
X167082649Y-91159201D01*
X166878848Y-91011132D01*
X166878847Y-91011131D01*
X166878845Y-91011130D01*
X166808747Y-90975413D01*
X166654383Y-90896760D01*
X166414785Y-90818910D01*
X166165962Y-90779500D01*
X165914038Y-90779500D01*
X165789626Y-90799205D01*
X165665214Y-90818910D01*
X165425616Y-90896760D01*
X165201151Y-91011132D01*
X164997350Y-91159201D01*
X164997345Y-91159205D01*
X164819205Y-91337345D01*
X164819201Y-91337350D01*
X164671132Y-91541151D01*
X164556760Y-91765616D01*
X164478910Y-92005214D01*
X164439500Y-92254038D01*
X139318281Y-92254038D01*
X139338904Y-90072822D01*
X139421786Y-81306839D01*
X139432934Y-80127709D01*
X139547965Y-67961345D01*
X141186500Y-67961345D01*
X141186500Y-69858654D01*
X141193011Y-69919202D01*
X141193011Y-69919204D01*
X141244111Y-70056204D01*
X141331739Y-70173261D01*
X141448796Y-70260889D01*
X141585799Y-70311989D01*
X141613050Y-70314918D01*
X141646345Y-70318499D01*
X141646362Y-70318500D01*
X143543638Y-70318500D01*
X143543654Y-70318499D01*
X143570692Y-70315591D01*
X143604201Y-70311989D01*
X143741204Y-70260889D01*
X143858261Y-70173261D01*
X143945889Y-70056204D01*
X143971748Y-69986872D01*
X144013617Y-69930942D01*
X144079081Y-69906525D01*
X144147354Y-69921376D01*
X144175609Y-69942528D01*
X144217424Y-69984343D01*
X144396785Y-70114657D01*
X144490114Y-70162210D01*
X144594319Y-70215306D01*
X144594321Y-70215306D01*
X144594324Y-70215308D01*
X144805176Y-70283818D01*
X145024149Y-70318500D01*
X145024150Y-70318500D01*
X145245850Y-70318500D01*
X145245851Y-70318500D01*
X145464824Y-70283818D01*
X145675676Y-70215308D01*
X145873215Y-70114657D01*
X146052576Y-69984343D01*
X146209343Y-69827576D01*
X146339657Y-69648215D01*
X146440308Y-69450676D01*
X146508818Y-69239824D01*
X146517904Y-69182456D01*
X146518080Y-69181345D01*
X154131500Y-69181345D01*
X154131500Y-70978654D01*
X154138011Y-71039202D01*
X154138011Y-71039204D01*
X154189111Y-71176204D01*
X154276739Y-71293261D01*
X154393796Y-71380889D01*
X154514626Y-71425956D01*
X154570557Y-71467827D01*
X154594974Y-71533291D01*
X154580122Y-71601564D01*
X154558972Y-71629818D01*
X154453793Y-71734997D01*
X154328106Y-71907990D01*
X154231027Y-72098516D01*
X154231026Y-72098519D01*
X154164951Y-72301882D01*
X154131500Y-72513084D01*
X154131500Y-72726915D01*
X154164951Y-72938117D01*
X154231026Y-73141480D01*
X154231027Y-73141483D01*
X154302245Y-73281254D01*
X154328106Y-73332009D01*
X154453794Y-73505004D01*
X154604996Y-73656206D01*
X154777991Y-73781894D01*
X154781873Y-73784273D01*
X154828748Y-73836086D01*
X154840169Y-73905016D01*
X154812512Y-73969178D01*
X154781873Y-73995727D01*
X154777991Y-73998105D01*
X154604993Y-74123796D01*
X154453796Y-74274993D01*
X154328106Y-74447990D01*
X154231027Y-74638516D01*
X154231026Y-74638519D01*
X154164951Y-74841882D01*
X154131500Y-75053084D01*
X154131500Y-75266915D01*
X154164951Y-75478117D01*
X154231026Y-75681480D01*
X154231027Y-75681483D01*
X154302245Y-75821254D01*
X154328106Y-75872009D01*
X154453794Y-76045004D01*
X154604996Y-76196206D01*
X154777991Y-76321894D01*
X154781873Y-76324273D01*
X154828748Y-76376086D01*
X154840169Y-76445016D01*
X154812512Y-76509178D01*
X154781873Y-76535727D01*
X154777991Y-76538105D01*
X154604993Y-76663796D01*
X154453796Y-76814993D01*
X154328106Y-76987990D01*
X154231027Y-77178516D01*
X154231026Y-77178519D01*
X154164951Y-77381882D01*
X154131500Y-77593084D01*
X154131500Y-77806915D01*
X154164951Y-78018117D01*
X154231026Y-78221480D01*
X154231027Y-78221483D01*
X154302245Y-78361254D01*
X154328106Y-78412009D01*
X154453794Y-78585004D01*
X154604996Y-78736206D01*
X154777991Y-78861894D01*
X154782680Y-78864283D01*
X154833478Y-78912254D01*
X154850276Y-78980074D01*
X154827742Y-79046210D01*
X154786205Y-79082209D01*
X154786590Y-79082838D01*
X154782804Y-79085157D01*
X154782702Y-79085246D01*
X154782449Y-79085374D01*
X154782440Y-79085380D01*
X154728282Y-79124727D01*
X154728282Y-79124728D01*
X155360591Y-79757037D01*
X155297007Y-79774075D01*
X155182993Y-79839901D01*
X155089901Y-79932993D01*
X155024075Y-80047007D01*
X155007037Y-80110591D01*
X154374728Y-79478282D01*
X154374727Y-79478282D01*
X154335380Y-79532439D01*
X154238904Y-79721782D01*
X154173242Y-79923869D01*
X154173242Y-79923872D01*
X154140000Y-80133753D01*
X154140000Y-80346246D01*
X154173242Y-80556127D01*
X154173242Y-80556130D01*
X154238904Y-80758217D01*
X154335375Y-80947550D01*
X154374728Y-81001716D01*
X155007036Y-80369407D01*
X155024075Y-80432993D01*
X155089901Y-80547007D01*
X155182993Y-80640099D01*
X155297007Y-80705925D01*
X155360590Y-80722962D01*
X154728282Y-81355269D01*
X154728282Y-81355270D01*
X154782449Y-81394624D01*
X154971782Y-81491095D01*
X155173870Y-81556757D01*
X155383754Y-81590000D01*
X155596246Y-81590000D01*
X155806127Y-81556757D01*
X155806130Y-81556757D01*
X156008217Y-81491095D01*
X156197554Y-81394622D01*
X156251716Y-81355270D01*
X156251717Y-81355270D01*
X155619408Y-80722962D01*
X155682993Y-80705925D01*
X155797007Y-80640099D01*
X155890099Y-80547007D01*
X155955925Y-80432993D01*
X155972962Y-80369408D01*
X156605270Y-81001717D01*
X156605270Y-81001716D01*
X156644622Y-80947554D01*
X156649514Y-80937954D01*
X156697488Y-80887157D01*
X156765308Y-80870361D01*
X156831444Y-80892897D01*
X156870486Y-80937954D01*
X156875375Y-80947550D01*
X156914728Y-81001716D01*
X157547037Y-80369408D01*
X157564075Y-80432993D01*
X157629901Y-80547007D01*
X157722993Y-80640099D01*
X157837007Y-80705925D01*
X157900590Y-80722962D01*
X157268282Y-81355269D01*
X157268282Y-81355270D01*
X157322449Y-81394624D01*
X157511782Y-81491095D01*
X157713870Y-81556757D01*
X157923754Y-81590000D01*
X158136246Y-81590000D01*
X158346127Y-81556757D01*
X158346130Y-81556757D01*
X158548217Y-81491095D01*
X158737554Y-81394622D01*
X158791716Y-81355270D01*
X158791717Y-81355270D01*
X158159408Y-80722962D01*
X158222993Y-80705925D01*
X158337007Y-80640099D01*
X158430099Y-80547007D01*
X158495925Y-80432993D01*
X158512962Y-80369408D01*
X159145270Y-81001717D01*
X159145270Y-81001716D01*
X159184622Y-80947554D01*
X159281095Y-80758217D01*
X159346757Y-80556130D01*
X159346757Y-80556127D01*
X159380000Y-80346246D01*
X159380000Y-80133753D01*
X159346757Y-79923872D01*
X159346757Y-79923869D01*
X159281095Y-79721782D01*
X159184624Y-79532449D01*
X159145270Y-79478282D01*
X159145269Y-79478282D01*
X158512962Y-80110590D01*
X158495925Y-80047007D01*
X158430099Y-79932993D01*
X158337007Y-79839901D01*
X158222993Y-79774075D01*
X158159409Y-79757037D01*
X158791716Y-79124728D01*
X158737547Y-79085373D01*
X158737545Y-79085371D01*
X158737308Y-79085251D01*
X158737234Y-79085181D01*
X158733396Y-79082829D01*
X158733890Y-79082022D01*
X158686515Y-79037274D01*
X158669724Y-78969451D01*
X158692266Y-78903318D01*
X158737319Y-78864283D01*
X158742009Y-78861894D01*
X158915004Y-78736206D01*
X159066206Y-78585004D01*
X159191894Y-78412009D01*
X159288972Y-78221483D01*
X159355049Y-78018116D01*
X159388500Y-77806916D01*
X159388500Y-77593084D01*
X159355049Y-77381884D01*
X159288972Y-77178517D01*
X159288972Y-77178516D01*
X159191893Y-76987990D01*
X159066206Y-76814996D01*
X158915004Y-76663794D01*
X158742009Y-76538106D01*
X158742005Y-76538103D01*
X158738132Y-76535730D01*
X158691254Y-76483920D01*
X158679829Y-76414991D01*
X158707483Y-76350827D01*
X158738132Y-76324270D01*
X158742005Y-76321896D01*
X158742004Y-76321896D01*
X158742009Y-76321894D01*
X158915004Y-76196206D01*
X159066206Y-76045004D01*
X159191894Y-75872009D01*
X159288972Y-75681483D01*
X159355049Y-75478116D01*
X159388500Y-75266916D01*
X159388500Y-75053084D01*
X159355049Y-74841884D01*
X159288972Y-74638517D01*
X159288972Y-74638516D01*
X159191893Y-74447990D01*
X159066206Y-74274996D01*
X158915004Y-74123794D01*
X158742009Y-73998106D01*
X158742005Y-73998103D01*
X158738132Y-73995730D01*
X158691254Y-73943920D01*
X158679829Y-73874991D01*
X158707483Y-73810827D01*
X158738132Y-73784270D01*
X158742005Y-73781896D01*
X158742004Y-73781896D01*
X158742009Y-73781894D01*
X158915004Y-73656206D01*
X159066206Y-73505004D01*
X159191894Y-73332009D01*
X159288972Y-73141483D01*
X159355049Y-72938116D01*
X159388500Y-72726916D01*
X159388500Y-72513084D01*
X159355049Y-72301884D01*
X159288972Y-72098517D01*
X159288972Y-72098516D01*
X159191893Y-71907990D01*
X159066206Y-71734996D01*
X158915004Y-71583794D01*
X158742009Y-71458106D01*
X158742005Y-71458103D01*
X158738132Y-71455730D01*
X158691254Y-71403920D01*
X158679829Y-71334991D01*
X158707483Y-71270827D01*
X158738132Y-71244270D01*
X158742005Y-71241896D01*
X158742004Y-71241896D01*
X158742009Y-71241894D01*
X158915004Y-71116206D01*
X159066206Y-70965004D01*
X159191894Y-70792009D01*
X159288972Y-70601483D01*
X159355049Y-70398116D01*
X159388500Y-70186916D01*
X159388500Y-69973084D01*
X159355049Y-69761884D01*
X159288972Y-69558517D01*
X159288972Y-69558516D01*
X159234024Y-69450676D01*
X159191894Y-69367991D01*
X159066206Y-69194996D01*
X158915004Y-69043794D01*
X158742009Y-68918106D01*
X158551483Y-68821027D01*
X158551480Y-68821026D01*
X158348117Y-68754951D01*
X158242516Y-68738225D01*
X158136916Y-68721500D01*
X157923084Y-68721500D01*
X157852684Y-68732650D01*
X157711882Y-68754951D01*
X157508519Y-68821026D01*
X157508516Y-68821027D01*
X157317990Y-68918106D01*
X157144997Y-69043793D01*
X157039818Y-69148972D01*
X156978495Y-69182456D01*
X156908803Y-69177472D01*
X156852870Y-69135600D01*
X156835958Y-69104629D01*
X156790889Y-68983796D01*
X156703261Y-68866739D01*
X156586204Y-68779111D01*
X156449203Y-68728011D01*
X156388654Y-68721500D01*
X156388638Y-68721500D01*
X154591362Y-68721500D01*
X154591345Y-68721500D01*
X154530797Y-68728011D01*
X154530795Y-68728011D01*
X154393795Y-68779111D01*
X154276739Y-68866739D01*
X154189111Y-68983795D01*
X154138011Y-69120795D01*
X154138011Y-69120797D01*
X154131500Y-69181345D01*
X146518080Y-69181345D01*
X146521676Y-69158643D01*
X146543500Y-69020850D01*
X146543500Y-68799149D01*
X146532233Y-68728011D01*
X146508818Y-68580176D01*
X146440308Y-68369324D01*
X146440306Y-68369321D01*
X146440306Y-68369319D01*
X146339656Y-68171784D01*
X146209343Y-67992424D01*
X146052576Y-67835657D01*
X145873215Y-67705343D01*
X145675680Y-67604693D01*
X145464824Y-67536182D01*
X145245851Y-67501500D01*
X145024149Y-67501500D01*
X144914662Y-67518841D01*
X144805175Y-67536182D01*
X144594319Y-67604693D01*
X144396784Y-67705343D01*
X144316334Y-67763794D01*
X144217424Y-67835657D01*
X144217422Y-67835659D01*
X144217420Y-67835660D01*
X144175608Y-67877472D01*
X144114285Y-67910957D01*
X144044593Y-67905971D01*
X143988660Y-67864099D01*
X143971748Y-67833128D01*
X143945889Y-67763796D01*
X143858261Y-67646739D01*
X143741204Y-67559111D01*
X143679730Y-67536182D01*
X143604203Y-67508011D01*
X143543654Y-67501500D01*
X143543638Y-67501500D01*
X141646362Y-67501500D01*
X141646345Y-67501500D01*
X141585797Y-67508011D01*
X141585795Y-67508011D01*
X141448795Y-67559111D01*
X141331739Y-67646739D01*
X141244111Y-67763795D01*
X141193011Y-67900795D01*
X141193011Y-67900797D01*
X141186500Y-67961345D01*
X139547965Y-67961345D01*
X139548007Y-67956869D01*
X139610000Y-61400000D01*
X136618805Y-61255730D01*
X136552792Y-61232839D01*
X136509634Y-61177892D01*
X136500782Y-61131060D01*
X136544506Y-54484982D01*
X137294500Y-54484982D01*
X137294500Y-60484982D01*
X137294500Y-60515018D01*
X137305994Y-60542767D01*
X137327233Y-60564006D01*
X137354982Y-60575500D01*
X137354984Y-60575500D01*
X142015016Y-60575500D01*
X142015018Y-60575500D01*
X142042767Y-60564006D01*
X142064006Y-60542767D01*
X142075500Y-60515018D01*
X142075500Y-54484982D01*
X144914500Y-54484982D01*
X144914500Y-60515018D01*
X144925994Y-60542767D01*
X144947233Y-60564006D01*
X144974982Y-60575500D01*
X144974984Y-60575500D01*
X149515016Y-60575500D01*
X149515018Y-60575500D01*
X149542767Y-60564006D01*
X149564006Y-60542767D01*
X149575500Y-60515018D01*
X149575500Y-54484982D01*
X152534500Y-54484982D01*
X152534500Y-60484982D01*
X152534500Y-60515018D01*
X152545994Y-60542767D01*
X152567233Y-60564006D01*
X152594982Y-60575500D01*
X152594984Y-60575500D01*
X157115016Y-60575500D01*
X157115018Y-60575500D01*
X157142767Y-60564006D01*
X157164006Y-60542767D01*
X157175500Y-60515018D01*
X157175500Y-54484982D01*
X157164006Y-54457233D01*
X157142767Y-54435994D01*
X157115018Y-54424500D01*
X152625018Y-54424500D01*
X152594982Y-54424500D01*
X152567231Y-54435995D01*
X152545995Y-54457231D01*
X152545994Y-54457232D01*
X152545994Y-54457233D01*
X152534500Y-54484982D01*
X149575500Y-54484982D01*
X149564006Y-54457233D01*
X149542767Y-54435994D01*
X149515018Y-54424500D01*
X145005018Y-54424500D01*
X144974982Y-54424500D01*
X144947231Y-54435995D01*
X144925995Y-54457231D01*
X144925994Y-54457232D01*
X144925994Y-54457233D01*
X144914500Y-54484982D01*
X142075500Y-54484982D01*
X142064006Y-54457233D01*
X142042767Y-54435994D01*
X142015018Y-54424500D01*
X137385018Y-54424500D01*
X137354982Y-54424500D01*
X137327231Y-54435995D01*
X137305995Y-54457231D01*
X137305994Y-54457232D01*
X137305994Y-54457233D01*
X137294500Y-54484982D01*
X136544506Y-54484982D01*
X136570252Y-50571683D01*
X136590377Y-50504776D01*
X136643481Y-50459369D01*
X136694249Y-50448500D01*
X137478638Y-50448500D01*
X137478654Y-50448499D01*
X137505692Y-50445591D01*
X137539201Y-50441989D01*
X137676204Y-50390889D01*
X137793261Y-50303261D01*
X137880889Y-50186204D01*
X137925957Y-50065371D01*
X137967827Y-50009442D01*
X138033291Y-49985025D01*
X138101564Y-49999877D01*
X138129818Y-50021028D01*
X138234996Y-50126206D01*
X138407991Y-50251894D01*
X138494954Y-50296204D01*
X138598516Y-50348972D01*
X138598519Y-50348973D01*
X138638284Y-50361893D01*
X138801884Y-50415049D01*
X139013084Y-50448500D01*
X139013085Y-50448500D01*
X139226915Y-50448500D01*
X139226916Y-50448500D01*
X139438116Y-50415049D01*
X139641483Y-50348972D01*
X139832009Y-50251894D01*
X140005004Y-50126206D01*
X140156206Y-49975004D01*
X140281894Y-49802009D01*
X140281896Y-49802004D01*
X140284270Y-49798132D01*
X140336080Y-49751254D01*
X140405009Y-49739829D01*
X140469173Y-49767483D01*
X140495730Y-49798132D01*
X140498103Y-49802005D01*
X140498106Y-49802009D01*
X140623794Y-49975004D01*
X140774996Y-50126206D01*
X140947991Y-50251894D01*
X141034954Y-50296204D01*
X141138516Y-50348972D01*
X141138519Y-50348973D01*
X141178284Y-50361893D01*
X141341884Y-50415049D01*
X141553084Y-50448500D01*
X141553085Y-50448500D01*
X141766915Y-50448500D01*
X141766916Y-50448500D01*
X141978116Y-50415049D01*
X142181483Y-50348972D01*
X142372009Y-50251894D01*
X142545004Y-50126206D01*
X142696206Y-49975004D01*
X142821894Y-49802009D01*
X142918972Y-49611483D01*
X142985049Y-49408116D01*
X143013729Y-49227033D01*
X143043658Y-49163901D01*
X143102969Y-49126969D01*
X143136810Y-49122435D01*
X144238115Y-49127883D01*
G37*
%TD.AperFunction*%
%TD*%
M02*
