%TF.GenerationSoftware,KiCad,Pcbnew,10.0.0*%
%TF.CreationDate,2026-04-08T13:15:39-07:00*%
%TF.ProjectId,yahrzeit_pixel,79616872-7a65-4697-945f-706978656c2e,rev?*%
%TF.SameCoordinates,Original*%
%TF.FileFunction,Soldermask,Top*%
%TF.FilePolarity,Negative*%
%FSLAX46Y46*%
G04 Gerber Fmt 4.6, Leading zero omitted, Abs format (unit mm)*
G04 Created by KiCad (PCBNEW 10.0.0) date 2026-04-08 13:15:39*
%MOMM*%
%LPD*%
G01*
G04 APERTURE LIST*
G04 Aperture macros list*
%AMRoundRect*
0 Rectangle with rounded corners*
0 $1 Rounding radius*
0 $2 $3 $4 $5 $6 $7 $8 $9 X,Y pos of 4 corners*
0 Add a 4 corners polygon primitive as box body*
4,1,4,$2,$3,$4,$5,$6,$7,$8,$9,$2,$3,0*
0 Add four circle primitives for the rounded corners*
1,1,$1+$1,$2,$3*
1,1,$1+$1,$4,$5*
1,1,$1+$1,$6,$7*
1,1,$1+$1,$8,$9*
0 Add four rect primitives between the rounded corners*
20,1,$1+$1,$2,$3,$4,$5,0*
20,1,$1+$1,$4,$5,$6,$7,0*
20,1,$1+$1,$6,$7,$8,$9,0*
20,1,$1+$1,$8,$9,$2,$3,0*%
G04 Aperture macros list end*
%ADD10RoundRect,0.162500X-0.575000X-0.162500X0.575000X-0.162500X0.575000X0.162500X-0.575000X0.162500X0*%
%ADD11RoundRect,0.243750X-0.243750X-0.456250X0.243750X-0.456250X0.243750X0.456250X-0.243750X0.456250X0*%
%ADD12RoundRect,0.200000X0.200000X0.275000X-0.200000X0.275000X-0.200000X-0.275000X0.200000X-0.275000X0*%
%ADD13RoundRect,0.225000X-0.225000X-0.250000X0.225000X-0.250000X0.225000X0.250000X-0.225000X0.250000X0*%
%ADD14R,1.700000X1.700000*%
%ADD15C,1.700000*%
%ADD16RoundRect,0.150000X-0.837500X-0.150000X0.837500X-0.150000X0.837500X0.150000X-0.837500X0.150000X0*%
%ADD17RoundRect,0.250000X0.550000X-1.500000X0.550000X1.500000X-0.550000X1.500000X-0.550000X-1.500000X0*%
%ADD18RoundRect,0.250001X-1.099999X1.099999X-1.099999X-1.099999X1.099999X-1.099999X1.099999X1.099999X0*%
%ADD19C,2.700000*%
%ADD20C,3.200000*%
G04 APERTURE END LIST*
D10*
%TO.C,U10*%
X79699789Y-82514646D03*
X79699789Y-83784646D03*
X79699789Y-85054646D03*
X79699789Y-86324646D03*
X79699789Y-87594646D03*
X79699789Y-88864646D03*
X79699789Y-90134646D03*
X79699789Y-91404646D03*
X85424789Y-91404646D03*
X85424789Y-90134646D03*
X85424789Y-88864646D03*
X85424789Y-87594646D03*
X85424789Y-86324646D03*
X85424789Y-85054646D03*
X85424789Y-83784646D03*
X85424789Y-82514646D03*
%TD*%
D11*
%TO.C,LED46*%
X70125000Y-116266434D03*
X72000000Y-116266434D03*
%TD*%
D12*
%TO.C,R32*%
X74912500Y-59958934D03*
X73262500Y-59958934D03*
%TD*%
%TO.C,R39*%
X74887289Y-87959646D03*
X73237289Y-87959646D03*
%TD*%
%TO.C,R44*%
X75387500Y-109266434D03*
X73737500Y-109266434D03*
%TD*%
%TO.C,R3*%
X49420000Y-43675000D03*
X47770000Y-43675000D03*
%TD*%
D11*
%TO.C,LED24*%
X44107500Y-123430000D03*
X45982500Y-123430000D03*
%TD*%
D12*
%TO.C,R71*%
X102120000Y-119578934D03*
X100470000Y-119578934D03*
%TD*%
%TO.C,R38*%
X74887289Y-84459646D03*
X73237289Y-84459646D03*
%TD*%
D11*
%TO.C,LED25*%
X69650000Y-35458934D03*
X71525000Y-35458934D03*
%TD*%
D13*
%TO.C,C6*%
X60275000Y-97055000D03*
X61825000Y-97055000D03*
%TD*%
D12*
%TO.C,R21*%
X49370000Y-112930000D03*
X47720000Y-112930000D03*
%TD*%
D11*
%TO.C,LED65*%
X96857500Y-98578934D03*
X98732500Y-98578934D03*
%TD*%
%TO.C,LED51*%
X96857500Y-42578934D03*
X98732500Y-42578934D03*
%TD*%
D14*
%TO.C,CN1*%
X35325000Y-40720000D03*
D15*
X37865000Y-40720000D03*
X35325000Y-43260000D03*
X37865000Y-43260000D03*
X35325000Y-45800000D03*
X37865000Y-45800000D03*
X35325000Y-48340000D03*
X37865000Y-48340000D03*
X35325000Y-50880000D03*
X37865000Y-50880000D03*
%TD*%
D10*
%TO.C,U14*%
X106932500Y-51133934D03*
X106932500Y-52403934D03*
X106932500Y-53673934D03*
X106932500Y-54943934D03*
X106932500Y-56213934D03*
X106932500Y-57483934D03*
X106932500Y-58753934D03*
X106932500Y-60023934D03*
X112657500Y-60023934D03*
X112657500Y-58753934D03*
X112657500Y-57483934D03*
X112657500Y-56213934D03*
X112657500Y-54943934D03*
X112657500Y-53673934D03*
X112657500Y-52403934D03*
X112657500Y-51133934D03*
%TD*%
D16*
%TO.C,U11*%
X79600000Y-98551434D03*
X79600000Y-99821434D03*
X79600000Y-101091434D03*
X79600000Y-102361434D03*
X79600000Y-103631434D03*
X79600000Y-104901434D03*
X79600000Y-106171434D03*
X79600000Y-107441434D03*
X79600000Y-108711434D03*
X79600000Y-109981434D03*
X86525000Y-109981434D03*
X86525000Y-108711434D03*
X86525000Y-107441434D03*
X86525000Y-106171434D03*
X86525000Y-104901434D03*
X86525000Y-103631434D03*
X86525000Y-102361434D03*
X86525000Y-101091434D03*
X86525000Y-99821434D03*
X86525000Y-98551434D03*
%TD*%
D11*
%TO.C,LED71*%
X96857500Y-119578934D03*
X98732500Y-119578934D03*
%TD*%
D12*
%TO.C,R49*%
X102120000Y-35578934D03*
X100470000Y-35578934D03*
%TD*%
%TO.C,R51*%
X102120000Y-42578934D03*
X100470000Y-42578934D03*
%TD*%
%TO.C,R72*%
X102120000Y-123078934D03*
X100470000Y-123078934D03*
%TD*%
D11*
%TO.C,LED48*%
X70125000Y-123266434D03*
X72000000Y-123266434D03*
%TD*%
D12*
%TO.C,R11*%
X49420000Y-74707500D03*
X47770000Y-74707500D03*
%TD*%
%TO.C,R41*%
X75387500Y-98766434D03*
X73737500Y-98766434D03*
%TD*%
D11*
%TO.C,LED43*%
X70125000Y-105766434D03*
X72000000Y-105766434D03*
%TD*%
D13*
%TO.C,C5*%
X59620000Y-81707500D03*
X61170000Y-81707500D03*
%TD*%
D12*
%TO.C,R5*%
X49420000Y-50675000D03*
X47770000Y-50675000D03*
%TD*%
D16*
%TO.C,U17*%
X106332500Y-98363934D03*
X106332500Y-99633934D03*
X106332500Y-100903934D03*
X106332500Y-102173934D03*
X106332500Y-103443934D03*
X106332500Y-104713934D03*
X106332500Y-105983934D03*
X106332500Y-107253934D03*
X106332500Y-108523934D03*
X106332500Y-109793934D03*
X113257500Y-109793934D03*
X113257500Y-108523934D03*
X113257500Y-107253934D03*
X113257500Y-105983934D03*
X113257500Y-104713934D03*
X113257500Y-103443934D03*
X113257500Y-102173934D03*
X113257500Y-100903934D03*
X113257500Y-99633934D03*
X113257500Y-98363934D03*
%TD*%
%TO.C,U15*%
X106332500Y-66438934D03*
X106332500Y-67708934D03*
X106332500Y-68978934D03*
X106332500Y-70248934D03*
X106332500Y-71518934D03*
X106332500Y-72788934D03*
X106332500Y-74058934D03*
X106332500Y-75328934D03*
X106332500Y-76598934D03*
X106332500Y-77868934D03*
X113257500Y-77868934D03*
X113257500Y-76598934D03*
X113257500Y-75328934D03*
X113257500Y-74058934D03*
X113257500Y-72788934D03*
X113257500Y-71518934D03*
X113257500Y-70248934D03*
X113257500Y-68978934D03*
X113257500Y-67708934D03*
X113257500Y-66438934D03*
%TD*%
D13*
%TO.C,C10*%
X85792289Y-65084646D03*
X87342289Y-65084646D03*
%TD*%
D11*
%TO.C,LED23*%
X44107500Y-119930000D03*
X45982500Y-119930000D03*
%TD*%
D12*
%TO.C,R25*%
X74912500Y-35458934D03*
X73262500Y-35458934D03*
%TD*%
D11*
%TO.C,LED20*%
X44107500Y-109430000D03*
X45982500Y-109430000D03*
%TD*%
D12*
%TO.C,R53*%
X102120000Y-49578934D03*
X100470000Y-49578934D03*
%TD*%
%TO.C,R2*%
X49420000Y-40175000D03*
X47770000Y-40175000D03*
%TD*%
D11*
%TO.C,LED72*%
X96857500Y-123078934D03*
X98732500Y-123078934D03*
%TD*%
D12*
%TO.C,R35*%
X74887289Y-73959646D03*
X73237289Y-73959646D03*
%TD*%
D11*
%TO.C,LED2*%
X44157500Y-40175000D03*
X46032500Y-40175000D03*
%TD*%
%TO.C,LED8*%
X44157500Y-61175000D03*
X46032500Y-61175000D03*
%TD*%
D12*
%TO.C,R33*%
X74887289Y-66959646D03*
X73237289Y-66959646D03*
%TD*%
%TO.C,R20*%
X49370000Y-109430000D03*
X47720000Y-109430000D03*
%TD*%
%TO.C,R14*%
X49420000Y-85207500D03*
X47770000Y-85207500D03*
%TD*%
D16*
%TO.C,U5*%
X53582500Y-98715000D03*
X53582500Y-99985000D03*
X53582500Y-101255000D03*
X53582500Y-102525000D03*
X53582500Y-103795000D03*
X53582500Y-105065000D03*
X53582500Y-106335000D03*
X53582500Y-107605000D03*
X53582500Y-108875000D03*
X53582500Y-110145000D03*
X60507500Y-110145000D03*
X60507500Y-108875000D03*
X60507500Y-107605000D03*
X60507500Y-106335000D03*
X60507500Y-105065000D03*
X60507500Y-103795000D03*
X60507500Y-102525000D03*
X60507500Y-101255000D03*
X60507500Y-99985000D03*
X60507500Y-98715000D03*
%TD*%
D11*
%TO.C,LED60*%
X96857500Y-77153934D03*
X98732500Y-77153934D03*
%TD*%
D12*
%TO.C,R27*%
X74912500Y-42458934D03*
X73262500Y-42458934D03*
%TD*%
D10*
%TO.C,U18*%
X106932500Y-114133934D03*
X106932500Y-115403934D03*
X106932500Y-116673934D03*
X106932500Y-117943934D03*
X106932500Y-119213934D03*
X106932500Y-120483934D03*
X106932500Y-121753934D03*
X106932500Y-123023934D03*
X112657500Y-123023934D03*
X112657500Y-121753934D03*
X112657500Y-120483934D03*
X112657500Y-119213934D03*
X112657500Y-117943934D03*
X112657500Y-116673934D03*
X112657500Y-115403934D03*
X112657500Y-114133934D03*
%TD*%
D13*
%TO.C,C15*%
X112320000Y-49578934D03*
X113870000Y-49578934D03*
%TD*%
D11*
%TO.C,LED61*%
X96857500Y-80653934D03*
X98732500Y-80653934D03*
%TD*%
D10*
%TO.C,U12*%
X80200000Y-114321434D03*
X80200000Y-115591434D03*
X80200000Y-116861434D03*
X80200000Y-118131434D03*
X80200000Y-119401434D03*
X80200000Y-120671434D03*
X80200000Y-121941434D03*
X80200000Y-123211434D03*
X85925000Y-123211434D03*
X85925000Y-121941434D03*
X85925000Y-120671434D03*
X85925000Y-119401434D03*
X85925000Y-118131434D03*
X85925000Y-116861434D03*
X85925000Y-115591434D03*
X85925000Y-114321434D03*
%TD*%
D11*
%TO.C,LED21*%
X44107500Y-112930000D03*
X45982500Y-112930000D03*
%TD*%
D12*
%TO.C,R45*%
X75387500Y-112766434D03*
X73737500Y-112766434D03*
%TD*%
%TO.C,R17*%
X49370000Y-98930000D03*
X47720000Y-98930000D03*
%TD*%
%TO.C,R57*%
X102120000Y-66653934D03*
X100470000Y-66653934D03*
%TD*%
%TO.C,R34*%
X74887289Y-70459646D03*
X73237289Y-70459646D03*
%TD*%
D13*
%TO.C,C2*%
X60325000Y-34800000D03*
X61875000Y-34800000D03*
%TD*%
D11*
%TO.C,LED13*%
X44157500Y-81707500D03*
X46032500Y-81707500D03*
%TD*%
%TO.C,LED28*%
X69650000Y-45958934D03*
X71525000Y-45958934D03*
%TD*%
%TO.C,LED5*%
X44157500Y-50675000D03*
X46032500Y-50675000D03*
%TD*%
D14*
%TO.C,CN2*%
X120260000Y-107460000D03*
D15*
X122800000Y-107460000D03*
X120260000Y-110000000D03*
X122800000Y-110000000D03*
X120260000Y-112540000D03*
X122800000Y-112540000D03*
X120260000Y-115080000D03*
X122800000Y-115080000D03*
X120260000Y-117620000D03*
X122800000Y-117620000D03*
%TD*%
D11*
%TO.C,LED17*%
X44107500Y-98930000D03*
X45982500Y-98930000D03*
%TD*%
D12*
%TO.C,R18*%
X49370000Y-102430000D03*
X47720000Y-102430000D03*
%TD*%
D11*
%TO.C,LED33*%
X69624789Y-66959646D03*
X71499789Y-66959646D03*
%TD*%
D13*
%TO.C,C7*%
X59570000Y-112930000D03*
X61120000Y-112930000D03*
%TD*%
D12*
%TO.C,R64*%
X102120000Y-91153934D03*
X100470000Y-91153934D03*
%TD*%
%TO.C,R36*%
X74887289Y-77459646D03*
X73237289Y-77459646D03*
%TD*%
D11*
%TO.C,LED11*%
X44157500Y-74707500D03*
X46032500Y-74707500D03*
%TD*%
%TO.C,LED63*%
X96857500Y-87653934D03*
X98732500Y-87653934D03*
%TD*%
%TO.C,LED39*%
X69624789Y-87959646D03*
X71499789Y-87959646D03*
%TD*%
D13*
%TO.C,C8*%
X85817500Y-33583934D03*
X87367500Y-33583934D03*
%TD*%
D12*
%TO.C,R40*%
X74887289Y-91459646D03*
X73237289Y-91459646D03*
%TD*%
%TO.C,R63*%
X102120000Y-87653934D03*
X100470000Y-87653934D03*
%TD*%
D11*
%TO.C,LED68*%
X96857500Y-109078934D03*
X98732500Y-109078934D03*
%TD*%
D13*
%TO.C,C9*%
X85112500Y-49458934D03*
X86662500Y-49458934D03*
%TD*%
D17*
%TO.C,C1*%
X35875000Y-69775000D03*
X35875000Y-64375000D03*
%TD*%
D12*
%TO.C,R56*%
X102120000Y-60078934D03*
X100470000Y-60078934D03*
%TD*%
%TO.C,R23*%
X49370000Y-119930000D03*
X47720000Y-119930000D03*
%TD*%
D10*
%TO.C,U16*%
X106932500Y-82208934D03*
X106932500Y-83478934D03*
X106932500Y-84748934D03*
X106932500Y-86018934D03*
X106932500Y-87288934D03*
X106932500Y-88558934D03*
X106932500Y-89828934D03*
X106932500Y-91098934D03*
X112657500Y-91098934D03*
X112657500Y-89828934D03*
X112657500Y-88558934D03*
X112657500Y-87288934D03*
X112657500Y-86018934D03*
X112657500Y-84748934D03*
X112657500Y-83478934D03*
X112657500Y-82208934D03*
%TD*%
D12*
%TO.C,R54*%
X102120000Y-53078934D03*
X100470000Y-53078934D03*
%TD*%
%TO.C,R66*%
X102120000Y-102078934D03*
X100470000Y-102078934D03*
%TD*%
%TO.C,R9*%
X49420000Y-67707500D03*
X47770000Y-67707500D03*
%TD*%
%TO.C,R65*%
X102120000Y-98578934D03*
X100470000Y-98578934D03*
%TD*%
D13*
%TO.C,C14*%
X113025000Y-33703934D03*
X114575000Y-33703934D03*
%TD*%
D11*
%TO.C,LED47*%
X70125000Y-119766434D03*
X72000000Y-119766434D03*
%TD*%
D12*
%TO.C,R58*%
X102120000Y-70153934D03*
X100470000Y-70153934D03*
%TD*%
D11*
%TO.C,LED32*%
X69650000Y-59958934D03*
X71525000Y-59958934D03*
%TD*%
D12*
%TO.C,R62*%
X102120000Y-84153934D03*
X100470000Y-84153934D03*
%TD*%
D11*
%TO.C,LED15*%
X44157500Y-88707500D03*
X46032500Y-88707500D03*
%TD*%
D12*
%TO.C,R70*%
X102120000Y-116078934D03*
X100470000Y-116078934D03*
%TD*%
D10*
%TO.C,U4*%
X54232500Y-83262500D03*
X54232500Y-84532500D03*
X54232500Y-85802500D03*
X54232500Y-87072500D03*
X54232500Y-88342500D03*
X54232500Y-89612500D03*
X54232500Y-90882500D03*
X54232500Y-92152500D03*
X59957500Y-92152500D03*
X59957500Y-90882500D03*
X59957500Y-89612500D03*
X59957500Y-88342500D03*
X59957500Y-87072500D03*
X59957500Y-85802500D03*
X59957500Y-84532500D03*
X59957500Y-83262500D03*
%TD*%
D12*
%TO.C,R7*%
X49420000Y-57675000D03*
X47770000Y-57675000D03*
%TD*%
%TO.C,R47*%
X75387500Y-119766434D03*
X73737500Y-119766434D03*
%TD*%
%TO.C,R67*%
X102120000Y-105578934D03*
X100470000Y-105578934D03*
%TD*%
D11*
%TO.C,LED26*%
X69650000Y-38958934D03*
X71525000Y-38958934D03*
%TD*%
D12*
%TO.C,R4*%
X49420000Y-47175000D03*
X47770000Y-47175000D03*
%TD*%
D11*
%TO.C,LED30*%
X69650000Y-52958934D03*
X71525000Y-52958934D03*
%TD*%
%TO.C,LED56*%
X96857500Y-60078934D03*
X98732500Y-60078934D03*
%TD*%
%TO.C,LED54*%
X96857500Y-53078934D03*
X98732500Y-53078934D03*
%TD*%
%TO.C,LED34*%
X69624789Y-70459646D03*
X71499789Y-70459646D03*
%TD*%
D12*
%TO.C,R55*%
X102120000Y-56578934D03*
X100470000Y-56578934D03*
%TD*%
D11*
%TO.C,LED49*%
X96857500Y-35578934D03*
X98732500Y-35578934D03*
%TD*%
D16*
%TO.C,U13*%
X106332500Y-35363934D03*
X106332500Y-36633934D03*
X106332500Y-37903934D03*
X106332500Y-39173934D03*
X106332500Y-40443934D03*
X106332500Y-41713934D03*
X106332500Y-42983934D03*
X106332500Y-44253934D03*
X106332500Y-45523934D03*
X106332500Y-46793934D03*
X113257500Y-46793934D03*
X113257500Y-45523934D03*
X113257500Y-44253934D03*
X113257500Y-42983934D03*
X113257500Y-41713934D03*
X113257500Y-40443934D03*
X113257500Y-39173934D03*
X113257500Y-37903934D03*
X113257500Y-36633934D03*
X113257500Y-35363934D03*
%TD*%
D11*
%TO.C,LED50*%
X96857500Y-39078934D03*
X98732500Y-39078934D03*
%TD*%
%TO.C,LED12*%
X44157500Y-78207500D03*
X46032500Y-78207500D03*
%TD*%
%TO.C,LED19*%
X44107500Y-105930000D03*
X45982500Y-105930000D03*
%TD*%
D12*
%TO.C,R6*%
X49420000Y-54175000D03*
X47770000Y-54175000D03*
%TD*%
%TO.C,R10*%
X49420000Y-71207500D03*
X47770000Y-71207500D03*
%TD*%
%TO.C,R46*%
X75387500Y-116266434D03*
X73737500Y-116266434D03*
%TD*%
D18*
%TO.C,PWR1*%
X35950000Y-78000000D03*
D19*
X35950000Y-81960000D03*
%TD*%
D11*
%TO.C,LED10*%
X44157500Y-71207500D03*
X46032500Y-71207500D03*
%TD*%
D20*
%TO.C,REF\u002A\u002A*%
X125200000Y-126100000D03*
%TD*%
D12*
%TO.C,R30*%
X74912500Y-52958934D03*
X73262500Y-52958934D03*
%TD*%
%TO.C,R29*%
X74912500Y-49458934D03*
X73262500Y-49458934D03*
%TD*%
D11*
%TO.C,LED7*%
X44157500Y-57675000D03*
X46032500Y-57675000D03*
%TD*%
%TO.C,LED38*%
X69624789Y-84459646D03*
X71499789Y-84459646D03*
%TD*%
D18*
%TO.C,PWR2*%
X123600000Y-77840000D03*
D19*
X123600000Y-81800000D03*
%TD*%
D11*
%TO.C,LED4*%
X44157500Y-47175000D03*
X46032500Y-47175000D03*
%TD*%
%TO.C,LED35*%
X69624789Y-73959646D03*
X71499789Y-73959646D03*
%TD*%
D12*
%TO.C,R37*%
X74887289Y-80959646D03*
X73237289Y-80959646D03*
%TD*%
D11*
%TO.C,LED41*%
X70125000Y-98766434D03*
X72000000Y-98766434D03*
%TD*%
D12*
%TO.C,R15*%
X49420000Y-88707500D03*
X47770000Y-88707500D03*
%TD*%
%TO.C,R8*%
X49420000Y-61175000D03*
X47770000Y-61175000D03*
%TD*%
D11*
%TO.C,LED42*%
X70125000Y-102266434D03*
X72000000Y-102266434D03*
%TD*%
%TO.C,LED9*%
X44157500Y-67707500D03*
X46032500Y-67707500D03*
%TD*%
D13*
%TO.C,C16*%
X113025000Y-64778934D03*
X114575000Y-64778934D03*
%TD*%
D11*
%TO.C,LED31*%
X69650000Y-56458934D03*
X71525000Y-56458934D03*
%TD*%
%TO.C,LED16*%
X44157500Y-92207500D03*
X46032500Y-92207500D03*
%TD*%
%TO.C,LED1*%
X44157500Y-36675000D03*
X46032500Y-36675000D03*
%TD*%
%TO.C,LED18*%
X44107500Y-102430000D03*
X45982500Y-102430000D03*
%TD*%
D12*
%TO.C,R59*%
X102120000Y-73653934D03*
X100470000Y-73653934D03*
%TD*%
D16*
%TO.C,U7*%
X79125000Y-35243934D03*
X79125000Y-36513934D03*
X79125000Y-37783934D03*
X79125000Y-39053934D03*
X79125000Y-40323934D03*
X79125000Y-41593934D03*
X79125000Y-42863934D03*
X79125000Y-44133934D03*
X79125000Y-45403934D03*
X79125000Y-46673934D03*
X86050000Y-46673934D03*
X86050000Y-45403934D03*
X86050000Y-44133934D03*
X86050000Y-42863934D03*
X86050000Y-41593934D03*
X86050000Y-40323934D03*
X86050000Y-39053934D03*
X86050000Y-37783934D03*
X86050000Y-36513934D03*
X86050000Y-35243934D03*
%TD*%
D13*
%TO.C,C13*%
X85587500Y-112766434D03*
X87137500Y-112766434D03*
%TD*%
D12*
%TO.C,R1*%
X49420000Y-36675000D03*
X47770000Y-36675000D03*
%TD*%
D11*
%TO.C,LED45*%
X70125000Y-112766434D03*
X72000000Y-112766434D03*
%TD*%
%TO.C,LED22*%
X44107500Y-116430000D03*
X45982500Y-116430000D03*
%TD*%
D12*
%TO.C,R28*%
X74912500Y-45958934D03*
X73262500Y-45958934D03*
%TD*%
D13*
%TO.C,C17*%
X112320000Y-80653934D03*
X113870000Y-80653934D03*
%TD*%
D12*
%TO.C,R26*%
X74912500Y-38958934D03*
X73262500Y-38958934D03*
%TD*%
D11*
%TO.C,LED40*%
X69624789Y-91459646D03*
X71499789Y-91459646D03*
%TD*%
D12*
%TO.C,R68*%
X102120000Y-109078934D03*
X100470000Y-109078934D03*
%TD*%
%TO.C,R69*%
X102120000Y-112578934D03*
X100470000Y-112578934D03*
%TD*%
D16*
%TO.C,U9*%
X79099789Y-66744646D03*
X79099789Y-68014646D03*
X79099789Y-69284646D03*
X79099789Y-70554646D03*
X79099789Y-71824646D03*
X79099789Y-73094646D03*
X79099789Y-74364646D03*
X79099789Y-75634646D03*
X79099789Y-76904646D03*
X79099789Y-78174646D03*
X86024789Y-78174646D03*
X86024789Y-76904646D03*
X86024789Y-75634646D03*
X86024789Y-74364646D03*
X86024789Y-73094646D03*
X86024789Y-71824646D03*
X86024789Y-70554646D03*
X86024789Y-69284646D03*
X86024789Y-68014646D03*
X86024789Y-66744646D03*
%TD*%
D12*
%TO.C,R61*%
X102120000Y-80653934D03*
X100470000Y-80653934D03*
%TD*%
D16*
%TO.C,U1*%
X53632500Y-36460000D03*
X53632500Y-37730000D03*
X53632500Y-39000000D03*
X53632500Y-40270000D03*
X53632500Y-41540000D03*
X53632500Y-42810000D03*
X53632500Y-44080000D03*
X53632500Y-45350000D03*
X53632500Y-46620000D03*
X53632500Y-47890000D03*
X60557500Y-47890000D03*
X60557500Y-46620000D03*
X60557500Y-45350000D03*
X60557500Y-44080000D03*
X60557500Y-42810000D03*
X60557500Y-41540000D03*
X60557500Y-40270000D03*
X60557500Y-39000000D03*
X60557500Y-37730000D03*
X60557500Y-36460000D03*
%TD*%
D12*
%TO.C,R22*%
X49370000Y-116430000D03*
X47720000Y-116430000D03*
%TD*%
D11*
%TO.C,LED27*%
X69650000Y-42458934D03*
X71525000Y-42458934D03*
%TD*%
%TO.C,LED59*%
X96857500Y-73653934D03*
X98732500Y-73653934D03*
%TD*%
D12*
%TO.C,R50*%
X102120000Y-39078934D03*
X100470000Y-39078934D03*
%TD*%
D13*
%TO.C,C19*%
X112320000Y-112578934D03*
X113870000Y-112578934D03*
%TD*%
D10*
%TO.C,U2*%
X54232500Y-52230000D03*
X54232500Y-53500000D03*
X54232500Y-54770000D03*
X54232500Y-56040000D03*
X54232500Y-57310000D03*
X54232500Y-58580000D03*
X54232500Y-59850000D03*
X54232500Y-61120000D03*
X59957500Y-61120000D03*
X59957500Y-59850000D03*
X59957500Y-58580000D03*
X59957500Y-57310000D03*
X59957500Y-56040000D03*
X59957500Y-54770000D03*
X59957500Y-53500000D03*
X59957500Y-52230000D03*
%TD*%
D13*
%TO.C,C3*%
X59620000Y-50675000D03*
X61170000Y-50675000D03*
%TD*%
D11*
%TO.C,LED58*%
X96857500Y-70153934D03*
X98732500Y-70153934D03*
%TD*%
D10*
%TO.C,U6*%
X54182500Y-114485000D03*
X54182500Y-115755000D03*
X54182500Y-117025000D03*
X54182500Y-118295000D03*
X54182500Y-119565000D03*
X54182500Y-120835000D03*
X54182500Y-122105000D03*
X54182500Y-123375000D03*
X59907500Y-123375000D03*
X59907500Y-122105000D03*
X59907500Y-120835000D03*
X59907500Y-119565000D03*
X59907500Y-118295000D03*
X59907500Y-117025000D03*
X59907500Y-115755000D03*
X59907500Y-114485000D03*
%TD*%
D11*
%TO.C,LED37*%
X69624789Y-80959646D03*
X71499789Y-80959646D03*
%TD*%
D12*
%TO.C,R19*%
X49370000Y-105930000D03*
X47720000Y-105930000D03*
%TD*%
D11*
%TO.C,LED14*%
X44157500Y-85207500D03*
X46032500Y-85207500D03*
%TD*%
D12*
%TO.C,R43*%
X75387500Y-105766434D03*
X73737500Y-105766434D03*
%TD*%
D13*
%TO.C,C18*%
X113025000Y-96703934D03*
X114575000Y-96703934D03*
%TD*%
D20*
%TO.C,REF\u002A\u002A*%
X125300000Y-33500000D03*
%TD*%
%TO.C,REF\u002A\u002A*%
X32800000Y-126100000D03*
%TD*%
D10*
%TO.C,U8*%
X79725000Y-51013934D03*
X79725000Y-52283934D03*
X79725000Y-53553934D03*
X79725000Y-54823934D03*
X79725000Y-56093934D03*
X79725000Y-57363934D03*
X79725000Y-58633934D03*
X79725000Y-59903934D03*
X85450000Y-59903934D03*
X85450000Y-58633934D03*
X85450000Y-57363934D03*
X85450000Y-56093934D03*
X85450000Y-54823934D03*
X85450000Y-53553934D03*
X85450000Y-52283934D03*
X85450000Y-51013934D03*
%TD*%
D11*
%TO.C,LED53*%
X96857500Y-49578934D03*
X98732500Y-49578934D03*
%TD*%
%TO.C,LED29*%
X69650000Y-49458934D03*
X71525000Y-49458934D03*
%TD*%
%TO.C,LED36*%
X69624789Y-77459646D03*
X71499789Y-77459646D03*
%TD*%
D16*
%TO.C,U3*%
X53632500Y-67492500D03*
X53632500Y-68762500D03*
X53632500Y-70032500D03*
X53632500Y-71302500D03*
X53632500Y-72572500D03*
X53632500Y-73842500D03*
X53632500Y-75112500D03*
X53632500Y-76382500D03*
X53632500Y-77652500D03*
X53632500Y-78922500D03*
X60557500Y-78922500D03*
X60557500Y-77652500D03*
X60557500Y-76382500D03*
X60557500Y-75112500D03*
X60557500Y-73842500D03*
X60557500Y-72572500D03*
X60557500Y-71302500D03*
X60557500Y-70032500D03*
X60557500Y-68762500D03*
X60557500Y-67492500D03*
%TD*%
D11*
%TO.C,LED64*%
X96857500Y-91153934D03*
X98732500Y-91153934D03*
%TD*%
%TO.C,LED70*%
X96857500Y-116078934D03*
X98732500Y-116078934D03*
%TD*%
D12*
%TO.C,R13*%
X49420000Y-81707500D03*
X47770000Y-81707500D03*
%TD*%
D11*
%TO.C,LED62*%
X96857500Y-84153934D03*
X98732500Y-84153934D03*
%TD*%
D20*
%TO.C,REF\u002A\u002A*%
X32700000Y-33400000D03*
%TD*%
D13*
%TO.C,C11*%
X85087289Y-80959646D03*
X86637289Y-80959646D03*
%TD*%
D11*
%TO.C,LED55*%
X96857500Y-56578934D03*
X98732500Y-56578934D03*
%TD*%
%TO.C,LED66*%
X96857500Y-102078934D03*
X98732500Y-102078934D03*
%TD*%
D13*
%TO.C,C4*%
X60600000Y-65907500D03*
X62150000Y-65907500D03*
%TD*%
D12*
%TO.C,R42*%
X75387500Y-102266434D03*
X73737500Y-102266434D03*
%TD*%
%TO.C,R52*%
X102120000Y-46078934D03*
X100470000Y-46078934D03*
%TD*%
%TO.C,R24*%
X49370000Y-123430000D03*
X47720000Y-123430000D03*
%TD*%
D11*
%TO.C,LED52*%
X96857500Y-46078934D03*
X98732500Y-46078934D03*
%TD*%
D12*
%TO.C,R48*%
X75387500Y-123266434D03*
X73737500Y-123266434D03*
%TD*%
%TO.C,R12*%
X49420000Y-78207500D03*
X47770000Y-78207500D03*
%TD*%
%TO.C,R16*%
X49420000Y-92207500D03*
X47770000Y-92207500D03*
%TD*%
D11*
%TO.C,LED67*%
X96857500Y-105578934D03*
X98732500Y-105578934D03*
%TD*%
%TO.C,LED69*%
X96857500Y-112578934D03*
X98732500Y-112578934D03*
%TD*%
%TO.C,LED6*%
X44157500Y-54175000D03*
X46032500Y-54175000D03*
%TD*%
D13*
%TO.C,C12*%
X86292500Y-96891434D03*
X87842500Y-96891434D03*
%TD*%
D12*
%TO.C,R60*%
X102120000Y-77153934D03*
X100470000Y-77153934D03*
%TD*%
D11*
%TO.C,LED44*%
X70125000Y-109266434D03*
X72000000Y-109266434D03*
%TD*%
D12*
%TO.C,R31*%
X74912500Y-56458934D03*
X73262500Y-56458934D03*
%TD*%
D11*
%TO.C,LED3*%
X44157500Y-43675000D03*
X46032500Y-43675000D03*
%TD*%
%TO.C,LED57*%
X96857500Y-66653934D03*
X98732500Y-66653934D03*
%TD*%
M02*
