%
M48
M72
T01C0.0400
T02C0.1260
%
T01
X680Y1180
X1680Y1180
X2680Y1180
X3680Y1180
X4680Y1180
X5680Y1180
X6680Y1180
X7680Y1180
X8680Y3180
X8680Y4180
X8680Y5180
X8680Y6180
X8680Y7180
X8680Y8180
X8680Y9180
X8680Y10180
X8680Y11180
X8680Y12180
X8680Y13180
X8680Y14180
X8680Y15180
X8680Y16180
X8680Y17180
X8680Y18180
X8680Y19180
X8680Y20180
X9680Y20180
X9680Y19180
X9680Y18180
X9680Y17180
X9680Y16180
X9680Y15180
X9680Y14180
X9680Y13180
X9680Y12180
X9680Y11180
X9680Y10180
X9680Y9180
X9680Y8180
X9680Y7180
X9680Y6180
X9680Y5180
X9680Y4180
X9680Y3180
X5180Y9180
X5180Y10180
X5180Y11180
X5180Y12180
X5180Y13180
X4180Y13180
X4180Y12180
X4180Y11180
X4180Y10180
X4180Y9180
X3680Y20180
X4680Y20180
X5680Y20180
X2680Y20180
X1680Y20180
X680Y20180
T02
X7180Y20180
X9680Y1180
M30
