G75*
%MOIN*%
%OFA0B0*%
%FSLAX24Y24*%
%IPPOS*%
%LPD*%
%AMOC8*
5,1,8,0,0,1.08239X$1,22.5*
%
%ADD10C,0.0000*%
%ADD11OC8,0.0600*%
%ADD12C,0.0600*%
D10*
X000180Y000180D02*
X000180Y021175D01*
X009672Y021175D01*
X010680Y020180D01*
X010680Y016180D01*
X011680Y015180D01*
X011680Y001680D01*
X010680Y000680D01*
X010680Y000180D01*
X000180Y000180D01*
X009050Y001180D02*
X009052Y001230D01*
X009058Y001280D01*
X009068Y001329D01*
X009082Y001377D01*
X009099Y001424D01*
X009120Y001469D01*
X009145Y001513D01*
X009173Y001554D01*
X009205Y001593D01*
X009239Y001630D01*
X009276Y001664D01*
X009316Y001694D01*
X009358Y001721D01*
X009402Y001745D01*
X009448Y001766D01*
X009495Y001782D01*
X009543Y001795D01*
X009593Y001804D01*
X009642Y001809D01*
X009693Y001810D01*
X009743Y001807D01*
X009792Y001800D01*
X009841Y001789D01*
X009889Y001774D01*
X009935Y001756D01*
X009980Y001734D01*
X010023Y001708D01*
X010064Y001679D01*
X010103Y001647D01*
X010139Y001612D01*
X010171Y001574D01*
X010201Y001534D01*
X010228Y001491D01*
X010251Y001447D01*
X010270Y001401D01*
X010286Y001353D01*
X010298Y001304D01*
X010306Y001255D01*
X010310Y001205D01*
X010310Y001155D01*
X010306Y001105D01*
X010298Y001056D01*
X010286Y001007D01*
X010270Y000959D01*
X010251Y000913D01*
X010228Y000869D01*
X010201Y000826D01*
X010171Y000786D01*
X010139Y000748D01*
X010103Y000713D01*
X010064Y000681D01*
X010023Y000652D01*
X009980Y000626D01*
X009935Y000604D01*
X009889Y000586D01*
X009841Y000571D01*
X009792Y000560D01*
X009743Y000553D01*
X009693Y000550D01*
X009642Y000551D01*
X009593Y000556D01*
X009543Y000565D01*
X009495Y000578D01*
X009448Y000594D01*
X009402Y000615D01*
X009358Y000639D01*
X009316Y000666D01*
X009276Y000696D01*
X009239Y000730D01*
X009205Y000767D01*
X009173Y000806D01*
X009145Y000847D01*
X009120Y000891D01*
X009099Y000936D01*
X009082Y000983D01*
X009068Y001031D01*
X009058Y001080D01*
X009052Y001130D01*
X009050Y001180D01*
X006550Y020180D02*
X006552Y020230D01*
X006558Y020280D01*
X006568Y020329D01*
X006582Y020377D01*
X006599Y020424D01*
X006620Y020469D01*
X006645Y020513D01*
X006673Y020554D01*
X006705Y020593D01*
X006739Y020630D01*
X006776Y020664D01*
X006816Y020694D01*
X006858Y020721D01*
X006902Y020745D01*
X006948Y020766D01*
X006995Y020782D01*
X007043Y020795D01*
X007093Y020804D01*
X007142Y020809D01*
X007193Y020810D01*
X007243Y020807D01*
X007292Y020800D01*
X007341Y020789D01*
X007389Y020774D01*
X007435Y020756D01*
X007480Y020734D01*
X007523Y020708D01*
X007564Y020679D01*
X007603Y020647D01*
X007639Y020612D01*
X007671Y020574D01*
X007701Y020534D01*
X007728Y020491D01*
X007751Y020447D01*
X007770Y020401D01*
X007786Y020353D01*
X007798Y020304D01*
X007806Y020255D01*
X007810Y020205D01*
X007810Y020155D01*
X007806Y020105D01*
X007798Y020056D01*
X007786Y020007D01*
X007770Y019959D01*
X007751Y019913D01*
X007728Y019869D01*
X007701Y019826D01*
X007671Y019786D01*
X007639Y019748D01*
X007603Y019713D01*
X007564Y019681D01*
X007523Y019652D01*
X007480Y019626D01*
X007435Y019604D01*
X007389Y019586D01*
X007341Y019571D01*
X007292Y019560D01*
X007243Y019553D01*
X007193Y019550D01*
X007142Y019551D01*
X007093Y019556D01*
X007043Y019565D01*
X006995Y019578D01*
X006948Y019594D01*
X006902Y019615D01*
X006858Y019639D01*
X006816Y019666D01*
X006776Y019696D01*
X006739Y019730D01*
X006705Y019767D01*
X006673Y019806D01*
X006645Y019847D01*
X006620Y019891D01*
X006599Y019936D01*
X006582Y019983D01*
X006568Y020031D01*
X006558Y020080D01*
X006552Y020130D01*
X006550Y020180D01*
D11*
X008680Y020180D03*
X008680Y019180D03*
X008680Y018180D03*
X008680Y017180D03*
X008680Y016180D03*
X008680Y015180D03*
X008680Y014180D03*
X008680Y013180D03*
X008680Y012180D03*
X008680Y011180D03*
X008680Y010180D03*
X008680Y009180D03*
X008680Y008180D03*
X008680Y007180D03*
X008680Y006180D03*
X008680Y005180D03*
X008680Y004180D03*
X008680Y003180D03*
X009680Y003180D03*
X009680Y004180D03*
X009680Y005180D03*
X009680Y006180D03*
X009680Y007180D03*
X009680Y008180D03*
X009680Y009180D03*
X009680Y010180D03*
X009680Y011180D03*
X009680Y012180D03*
X009680Y013180D03*
X009680Y014180D03*
X009680Y015180D03*
X009680Y016180D03*
X009680Y017180D03*
X009680Y018180D03*
X009680Y019180D03*
X009680Y020180D03*
X005180Y013180D03*
X005180Y012180D03*
X005180Y011180D03*
X005180Y010180D03*
X005180Y009180D03*
X004180Y009180D03*
X004180Y010180D03*
X004180Y011180D03*
X004180Y012180D03*
X004180Y013180D03*
D12*
X003680Y019880D02*
X003680Y020480D01*
X004680Y020480D02*
X004680Y019880D01*
X005680Y019880D02*
X005680Y020480D01*
X002680Y020480D02*
X002680Y019880D01*
X001680Y019880D02*
X001680Y020480D01*
X000680Y020480D02*
X000680Y019880D01*
X000680Y001480D02*
X000680Y000880D01*
X001680Y000880D02*
X001680Y001480D01*
X002680Y001480D02*
X002680Y000880D01*
X003680Y000880D02*
X003680Y001480D01*
X004680Y001480D02*
X004680Y000880D01*
X005680Y000880D02*
X005680Y001480D01*
X006680Y001480D02*
X006680Y000880D01*
X007680Y000880D02*
X007680Y001480D01*
M02*
