M48
; DRILL file KiCad 10.0.0 date 2026-05-28T16:28:31
; FORMAT={-:-/ absolute / metric / decimal}
; #@! TF.CreationDate,2026-05-28T16:28:31-07:00
; #@! TF.GenerationSoftware,Kicad,Pcbnew,10.0.0
; #@! TF.FileFunction,Plated,1,2,PTH
FMAT,2
METRIC
; #@! TA.AperFunction,Plated,PTH,ComponentDrill
T1C0.900
; #@! TA.AperFunction,Plated,PTH,ComponentDrill
T2C1.000
%
G90
G05
T1
X142.595Y-68.91
X145.135Y-68.91
T2
X136.58Y-49.09
X138.1Y-97.46
X139.12Y-49.09
X140.64Y-97.46
X141.66Y-49.09
X143.18Y-97.46
X145.72Y-49.2
X145.72Y-97.46
X148.26Y-49.2
X150.8Y-49.2
X150.8Y-97.46
X153.34Y-49.2
X153.34Y-97.46
X155.49Y-70.08
X155.49Y-72.62
X155.49Y-75.16
X155.49Y-77.7
X155.49Y-80.24
X155.88Y-49.2
X155.88Y-97.46
X158.03Y-70.08
X158.03Y-72.62
X158.03Y-75.16
X158.03Y-77.7
X158.03Y-80.24
X158.42Y-49.2
X158.42Y-97.46
X160.96Y-49.2
X160.96Y-97.46
X163.5Y-49.2
X163.5Y-97.46
M30
