%TF.GenerationSoftware,KiCad,Pcbnew,10.0.0*%
%TF.CreationDate,2026-05-28T16:28:16-07:00*%
%TF.ProjectId,pixel_interface_v3,70697865-6c5f-4696-9e74-657266616365,rev?*%
%TF.SameCoordinates,Original*%
%TF.FileFunction,Legend,Top*%
%TF.FilePolarity,Positive*%
%FSLAX46Y46*%
G04 Gerber Fmt 4.6, Leading zero omitted, Abs format (unit mm)*
G04 Created by KiCad (PCBNEW 10.0.0) date 2026-05-28 16:28:16*
%MOMM*%
%LPD*%
G01*
G04 APERTURE LIST*
%ADD10C,0.150000*%
%ADD11C,0.200000*%
%ADD12C,0.120000*%
G04 APERTURE END LIST*
D10*
X149166779Y-78171569D02*
X149166779Y-77171569D01*
X149166779Y-77171569D02*
X149404874Y-77171569D01*
X149404874Y-77171569D02*
X149547731Y-77219188D01*
X149547731Y-77219188D02*
X149642969Y-77314426D01*
X149642969Y-77314426D02*
X149690588Y-77409664D01*
X149690588Y-77409664D02*
X149738207Y-77600140D01*
X149738207Y-77600140D02*
X149738207Y-77742997D01*
X149738207Y-77742997D02*
X149690588Y-77933473D01*
X149690588Y-77933473D02*
X149642969Y-78028711D01*
X149642969Y-78028711D02*
X149547731Y-78123950D01*
X149547731Y-78123950D02*
X149404874Y-78171569D01*
X149404874Y-78171569D02*
X149166779Y-78171569D01*
X150071541Y-77171569D02*
X150738207Y-77171569D01*
X150738207Y-77171569D02*
X150309636Y-78171569D01*
X151833445Y-77123950D02*
X150976303Y-78409664D01*
X152119160Y-78123950D02*
X152262017Y-78171569D01*
X152262017Y-78171569D02*
X152500112Y-78171569D01*
X152500112Y-78171569D02*
X152595350Y-78123950D01*
X152595350Y-78123950D02*
X152642969Y-78076330D01*
X152642969Y-78076330D02*
X152690588Y-77981092D01*
X152690588Y-77981092D02*
X152690588Y-77885854D01*
X152690588Y-77885854D02*
X152642969Y-77790616D01*
X152642969Y-77790616D02*
X152595350Y-77742997D01*
X152595350Y-77742997D02*
X152500112Y-77695378D01*
X152500112Y-77695378D02*
X152309636Y-77647759D01*
X152309636Y-77647759D02*
X152214398Y-77600140D01*
X152214398Y-77600140D02*
X152166779Y-77552521D01*
X152166779Y-77552521D02*
X152119160Y-77457283D01*
X152119160Y-77457283D02*
X152119160Y-77362045D01*
X152119160Y-77362045D02*
X152166779Y-77266807D01*
X152166779Y-77266807D02*
X152214398Y-77219188D01*
X152214398Y-77219188D02*
X152309636Y-77171569D01*
X152309636Y-77171569D02*
X152547731Y-77171569D01*
X152547731Y-77171569D02*
X152690588Y-77219188D01*
X152976303Y-77171569D02*
X153547731Y-77171569D01*
X153262017Y-78171569D02*
X153262017Y-77171569D01*
X148916779Y-73091569D02*
X148916779Y-72091569D01*
X148916779Y-72091569D02*
X149154874Y-72091569D01*
X149154874Y-72091569D02*
X149297731Y-72139188D01*
X149297731Y-72139188D02*
X149392969Y-72234426D01*
X149392969Y-72234426D02*
X149440588Y-72329664D01*
X149440588Y-72329664D02*
X149488207Y-72520140D01*
X149488207Y-72520140D02*
X149488207Y-72662997D01*
X149488207Y-72662997D02*
X149440588Y-72853473D01*
X149440588Y-72853473D02*
X149392969Y-72948711D01*
X149392969Y-72948711D02*
X149297731Y-73043950D01*
X149297731Y-73043950D02*
X149154874Y-73091569D01*
X149154874Y-73091569D02*
X148916779Y-73091569D01*
X150392969Y-72091569D02*
X149916779Y-72091569D01*
X149916779Y-72091569D02*
X149869160Y-72567759D01*
X149869160Y-72567759D02*
X149916779Y-72520140D01*
X149916779Y-72520140D02*
X150012017Y-72472521D01*
X150012017Y-72472521D02*
X150250112Y-72472521D01*
X150250112Y-72472521D02*
X150345350Y-72520140D01*
X150345350Y-72520140D02*
X150392969Y-72567759D01*
X150392969Y-72567759D02*
X150440588Y-72662997D01*
X150440588Y-72662997D02*
X150440588Y-72901092D01*
X150440588Y-72901092D02*
X150392969Y-72996330D01*
X150392969Y-72996330D02*
X150345350Y-73043950D01*
X150345350Y-73043950D02*
X150250112Y-73091569D01*
X150250112Y-73091569D02*
X150012017Y-73091569D01*
X150012017Y-73091569D02*
X149916779Y-73043950D01*
X149916779Y-73043950D02*
X149869160Y-72996330D01*
X151583445Y-72043950D02*
X150726303Y-73329664D01*
X152107255Y-72091569D02*
X152297731Y-72091569D01*
X152297731Y-72091569D02*
X152392969Y-72139188D01*
X152392969Y-72139188D02*
X152488207Y-72234426D01*
X152488207Y-72234426D02*
X152535826Y-72424902D01*
X152535826Y-72424902D02*
X152535826Y-72758235D01*
X152535826Y-72758235D02*
X152488207Y-72948711D01*
X152488207Y-72948711D02*
X152392969Y-73043950D01*
X152392969Y-73043950D02*
X152297731Y-73091569D01*
X152297731Y-73091569D02*
X152107255Y-73091569D01*
X152107255Y-73091569D02*
X152012017Y-73043950D01*
X152012017Y-73043950D02*
X151916779Y-72948711D01*
X151916779Y-72948711D02*
X151869160Y-72758235D01*
X151869160Y-72758235D02*
X151869160Y-72424902D01*
X151869160Y-72424902D02*
X151916779Y-72234426D01*
X151916779Y-72234426D02*
X152012017Y-72139188D01*
X152012017Y-72139188D02*
X152107255Y-72091569D01*
X152964398Y-72567759D02*
X153297731Y-72567759D01*
X153440588Y-73091569D02*
X152964398Y-73091569D01*
X152964398Y-73091569D02*
X152964398Y-72091569D01*
X152964398Y-72091569D02*
X153440588Y-72091569D01*
X147416779Y-70534819D02*
X147416779Y-69534819D01*
X147416779Y-69534819D02*
X147654874Y-69534819D01*
X147654874Y-69534819D02*
X147797731Y-69582438D01*
X147797731Y-69582438D02*
X147892969Y-69677676D01*
X147892969Y-69677676D02*
X147940588Y-69772914D01*
X147940588Y-69772914D02*
X147988207Y-69963390D01*
X147988207Y-69963390D02*
X147988207Y-70106247D01*
X147988207Y-70106247D02*
X147940588Y-70296723D01*
X147940588Y-70296723D02*
X147892969Y-70391961D01*
X147892969Y-70391961D02*
X147797731Y-70487200D01*
X147797731Y-70487200D02*
X147654874Y-70534819D01*
X147654874Y-70534819D02*
X147416779Y-70534819D01*
X148845350Y-69868152D02*
X148845350Y-70534819D01*
X148607255Y-69487200D02*
X148369160Y-70201485D01*
X148369160Y-70201485D02*
X148988207Y-70201485D01*
X150083445Y-69487200D02*
X149226303Y-70772914D01*
X150416779Y-70534819D02*
X150416779Y-69534819D01*
X150416779Y-69534819D02*
X150654874Y-69534819D01*
X150654874Y-69534819D02*
X150797731Y-69582438D01*
X150797731Y-69582438D02*
X150892969Y-69677676D01*
X150892969Y-69677676D02*
X150940588Y-69772914D01*
X150940588Y-69772914D02*
X150988207Y-69963390D01*
X150988207Y-69963390D02*
X150988207Y-70106247D01*
X150988207Y-70106247D02*
X150940588Y-70296723D01*
X150940588Y-70296723D02*
X150892969Y-70391961D01*
X150892969Y-70391961D02*
X150797731Y-70487200D01*
X150797731Y-70487200D02*
X150654874Y-70534819D01*
X150654874Y-70534819D02*
X150416779Y-70534819D01*
X151369160Y-70249104D02*
X151845350Y-70249104D01*
X151273922Y-70534819D02*
X151607255Y-69534819D01*
X151607255Y-69534819D02*
X151940588Y-70534819D01*
X152131065Y-69534819D02*
X152702493Y-69534819D01*
X152416779Y-70534819D02*
X152416779Y-69534819D01*
X152988208Y-70249104D02*
X153464398Y-70249104D01*
X152892970Y-70534819D02*
X153226303Y-69534819D01*
X153226303Y-69534819D02*
X153559636Y-70534819D01*
X136326779Y-94978866D02*
X137088684Y-94978866D01*
X136707731Y-95359819D02*
X136707731Y-94597914D01*
X138041064Y-94359819D02*
X137564874Y-94359819D01*
X137564874Y-94359819D02*
X137517255Y-94836009D01*
X137517255Y-94836009D02*
X137564874Y-94788390D01*
X137564874Y-94788390D02*
X137660112Y-94740771D01*
X137660112Y-94740771D02*
X137898207Y-94740771D01*
X137898207Y-94740771D02*
X137993445Y-94788390D01*
X137993445Y-94788390D02*
X138041064Y-94836009D01*
X138041064Y-94836009D02*
X138088683Y-94931247D01*
X138088683Y-94931247D02*
X138088683Y-95169342D01*
X138088683Y-95169342D02*
X138041064Y-95264580D01*
X138041064Y-95264580D02*
X137993445Y-95312200D01*
X137993445Y-95312200D02*
X137898207Y-95359819D01*
X137898207Y-95359819D02*
X137660112Y-95359819D01*
X137660112Y-95359819D02*
X137564874Y-95312200D01*
X137564874Y-95312200D02*
X137517255Y-95264580D01*
X138374398Y-94359819D02*
X138707731Y-95359819D01*
X138707731Y-95359819D02*
X139041064Y-94359819D01*
X141170588Y-94407438D02*
X141075350Y-94359819D01*
X141075350Y-94359819D02*
X140932493Y-94359819D01*
X140932493Y-94359819D02*
X140789636Y-94407438D01*
X140789636Y-94407438D02*
X140694398Y-94502676D01*
X140694398Y-94502676D02*
X140646779Y-94597914D01*
X140646779Y-94597914D02*
X140599160Y-94788390D01*
X140599160Y-94788390D02*
X140599160Y-94931247D01*
X140599160Y-94931247D02*
X140646779Y-95121723D01*
X140646779Y-95121723D02*
X140694398Y-95216961D01*
X140694398Y-95216961D02*
X140789636Y-95312200D01*
X140789636Y-95312200D02*
X140932493Y-95359819D01*
X140932493Y-95359819D02*
X141027731Y-95359819D01*
X141027731Y-95359819D02*
X141170588Y-95312200D01*
X141170588Y-95312200D02*
X141218207Y-95264580D01*
X141218207Y-95264580D02*
X141218207Y-94931247D01*
X141218207Y-94931247D02*
X141027731Y-94931247D01*
X141646779Y-95359819D02*
X141646779Y-94359819D01*
X141646779Y-94359819D02*
X142218207Y-95359819D01*
X142218207Y-95359819D02*
X142218207Y-94359819D01*
X142694398Y-95359819D02*
X142694398Y-94359819D01*
X142694398Y-94359819D02*
X142932493Y-94359819D01*
X142932493Y-94359819D02*
X143075350Y-94407438D01*
X143075350Y-94407438D02*
X143170588Y-94502676D01*
X143170588Y-94502676D02*
X143218207Y-94597914D01*
X143218207Y-94597914D02*
X143265826Y-94788390D01*
X143265826Y-94788390D02*
X143265826Y-94931247D01*
X143265826Y-94931247D02*
X143218207Y-95121723D01*
X143218207Y-95121723D02*
X143170588Y-95216961D01*
X143170588Y-95216961D02*
X143075350Y-95312200D01*
X143075350Y-95312200D02*
X142932493Y-95359819D01*
X142932493Y-95359819D02*
X142694398Y-95359819D01*
X144403922Y-94359819D02*
X144737255Y-95359819D01*
X144737255Y-95359819D02*
X145070588Y-94359819D01*
X145975350Y-95264580D02*
X145927731Y-95312200D01*
X145927731Y-95312200D02*
X145784874Y-95359819D01*
X145784874Y-95359819D02*
X145689636Y-95359819D01*
X145689636Y-95359819D02*
X145546779Y-95312200D01*
X145546779Y-95312200D02*
X145451541Y-95216961D01*
X145451541Y-95216961D02*
X145403922Y-95121723D01*
X145403922Y-95121723D02*
X145356303Y-94931247D01*
X145356303Y-94931247D02*
X145356303Y-94788390D01*
X145356303Y-94788390D02*
X145403922Y-94597914D01*
X145403922Y-94597914D02*
X145451541Y-94502676D01*
X145451541Y-94502676D02*
X145546779Y-94407438D01*
X145546779Y-94407438D02*
X145689636Y-94359819D01*
X145689636Y-94359819D02*
X145784874Y-94359819D01*
X145784874Y-94359819D02*
X145927731Y-94407438D01*
X145927731Y-94407438D02*
X145975350Y-94455057D01*
X146975350Y-95264580D02*
X146927731Y-95312200D01*
X146927731Y-95312200D02*
X146784874Y-95359819D01*
X146784874Y-95359819D02*
X146689636Y-95359819D01*
X146689636Y-95359819D02*
X146546779Y-95312200D01*
X146546779Y-95312200D02*
X146451541Y-95216961D01*
X146451541Y-95216961D02*
X146403922Y-95121723D01*
X146403922Y-95121723D02*
X146356303Y-94931247D01*
X146356303Y-94931247D02*
X146356303Y-94788390D01*
X146356303Y-94788390D02*
X146403922Y-94597914D01*
X146403922Y-94597914D02*
X146451541Y-94502676D01*
X146451541Y-94502676D02*
X146546779Y-94407438D01*
X146546779Y-94407438D02*
X146689636Y-94359819D01*
X146689636Y-94359819D02*
X146784874Y-94359819D01*
X146784874Y-94359819D02*
X146927731Y-94407438D01*
X146927731Y-94407438D02*
X146975350Y-94455057D01*
X148936779Y-75631569D02*
X148936779Y-74631569D01*
X148936779Y-74631569D02*
X149174874Y-74631569D01*
X149174874Y-74631569D02*
X149317731Y-74679188D01*
X149317731Y-74679188D02*
X149412969Y-74774426D01*
X149412969Y-74774426D02*
X149460588Y-74869664D01*
X149460588Y-74869664D02*
X149508207Y-75060140D01*
X149508207Y-75060140D02*
X149508207Y-75202997D01*
X149508207Y-75202997D02*
X149460588Y-75393473D01*
X149460588Y-75393473D02*
X149412969Y-75488711D01*
X149412969Y-75488711D02*
X149317731Y-75583950D01*
X149317731Y-75583950D02*
X149174874Y-75631569D01*
X149174874Y-75631569D02*
X148936779Y-75631569D01*
X150365350Y-74631569D02*
X150174874Y-74631569D01*
X150174874Y-74631569D02*
X150079636Y-74679188D01*
X150079636Y-74679188D02*
X150032017Y-74726807D01*
X150032017Y-74726807D02*
X149936779Y-74869664D01*
X149936779Y-74869664D02*
X149889160Y-75060140D01*
X149889160Y-75060140D02*
X149889160Y-75441092D01*
X149889160Y-75441092D02*
X149936779Y-75536330D01*
X149936779Y-75536330D02*
X149984398Y-75583950D01*
X149984398Y-75583950D02*
X150079636Y-75631569D01*
X150079636Y-75631569D02*
X150270112Y-75631569D01*
X150270112Y-75631569D02*
X150365350Y-75583950D01*
X150365350Y-75583950D02*
X150412969Y-75536330D01*
X150412969Y-75536330D02*
X150460588Y-75441092D01*
X150460588Y-75441092D02*
X150460588Y-75202997D01*
X150460588Y-75202997D02*
X150412969Y-75107759D01*
X150412969Y-75107759D02*
X150365350Y-75060140D01*
X150365350Y-75060140D02*
X150270112Y-75012521D01*
X150270112Y-75012521D02*
X150079636Y-75012521D01*
X150079636Y-75012521D02*
X149984398Y-75060140D01*
X149984398Y-75060140D02*
X149936779Y-75107759D01*
X149936779Y-75107759D02*
X149889160Y-75202997D01*
X151603445Y-74583950D02*
X150746303Y-75869664D01*
X152508207Y-75536330D02*
X152460588Y-75583950D01*
X152460588Y-75583950D02*
X152317731Y-75631569D01*
X152317731Y-75631569D02*
X152222493Y-75631569D01*
X152222493Y-75631569D02*
X152079636Y-75583950D01*
X152079636Y-75583950D02*
X151984398Y-75488711D01*
X151984398Y-75488711D02*
X151936779Y-75393473D01*
X151936779Y-75393473D02*
X151889160Y-75202997D01*
X151889160Y-75202997D02*
X151889160Y-75060140D01*
X151889160Y-75060140D02*
X151936779Y-74869664D01*
X151936779Y-74869664D02*
X151984398Y-74774426D01*
X151984398Y-74774426D02*
X152079636Y-74679188D01*
X152079636Y-74679188D02*
X152222493Y-74631569D01*
X152222493Y-74631569D02*
X152317731Y-74631569D01*
X152317731Y-74631569D02*
X152460588Y-74679188D01*
X152460588Y-74679188D02*
X152508207Y-74726807D01*
X152936779Y-75631569D02*
X152936779Y-74631569D01*
X152936779Y-74631569D02*
X153317731Y-74631569D01*
X153317731Y-74631569D02*
X153412969Y-74679188D01*
X153412969Y-74679188D02*
X153460588Y-74726807D01*
X153460588Y-74726807D02*
X153508207Y-74822045D01*
X153508207Y-74822045D02*
X153508207Y-74964902D01*
X153508207Y-74964902D02*
X153460588Y-75060140D01*
X153460588Y-75060140D02*
X153412969Y-75107759D01*
X153412969Y-75107759D02*
X153317731Y-75155378D01*
X153317731Y-75155378D02*
X152936779Y-75155378D01*
X151310588Y-79759188D02*
X151215350Y-79711569D01*
X151215350Y-79711569D02*
X151072493Y-79711569D01*
X151072493Y-79711569D02*
X150929636Y-79759188D01*
X150929636Y-79759188D02*
X150834398Y-79854426D01*
X150834398Y-79854426D02*
X150786779Y-79949664D01*
X150786779Y-79949664D02*
X150739160Y-80140140D01*
X150739160Y-80140140D02*
X150739160Y-80282997D01*
X150739160Y-80282997D02*
X150786779Y-80473473D01*
X150786779Y-80473473D02*
X150834398Y-80568711D01*
X150834398Y-80568711D02*
X150929636Y-80663950D01*
X150929636Y-80663950D02*
X151072493Y-80711569D01*
X151072493Y-80711569D02*
X151167731Y-80711569D01*
X151167731Y-80711569D02*
X151310588Y-80663950D01*
X151310588Y-80663950D02*
X151358207Y-80616330D01*
X151358207Y-80616330D02*
X151358207Y-80282997D01*
X151358207Y-80282997D02*
X151167731Y-80282997D01*
X151786779Y-80711569D02*
X151786779Y-79711569D01*
X151786779Y-79711569D02*
X152358207Y-80711569D01*
X152358207Y-80711569D02*
X152358207Y-79711569D01*
X152834398Y-80711569D02*
X152834398Y-79711569D01*
X152834398Y-79711569D02*
X153072493Y-79711569D01*
X153072493Y-79711569D02*
X153215350Y-79759188D01*
X153215350Y-79759188D02*
X153310588Y-79854426D01*
X153310588Y-79854426D02*
X153358207Y-79949664D01*
X153358207Y-79949664D02*
X153405826Y-80140140D01*
X153405826Y-80140140D02*
X153405826Y-80282997D01*
X153405826Y-80282997D02*
X153358207Y-80473473D01*
X153358207Y-80473473D02*
X153310588Y-80568711D01*
X153310588Y-80568711D02*
X153215350Y-80663950D01*
X153215350Y-80663950D02*
X153072493Y-80711569D01*
X153072493Y-80711569D02*
X152834398Y-80711569D01*
X136673684Y-91872744D02*
X137149875Y-91872744D01*
X136149875Y-92206077D02*
X136673684Y-91872744D01*
X136673684Y-91872744D02*
X136149875Y-91539411D01*
X136864160Y-91253696D02*
X136864160Y-90777506D01*
X137149875Y-91348934D02*
X136149875Y-91015601D01*
X136149875Y-91015601D02*
X137149875Y-90682268D01*
X137149875Y-90348934D02*
X136149875Y-90348934D01*
X136626065Y-90348934D02*
X136626065Y-89777506D01*
X137149875Y-89777506D02*
X136149875Y-89777506D01*
X137149875Y-88729887D02*
X136673684Y-89063220D01*
X137149875Y-89301315D02*
X136149875Y-89301315D01*
X136149875Y-89301315D02*
X136149875Y-88920363D01*
X136149875Y-88920363D02*
X136197494Y-88825125D01*
X136197494Y-88825125D02*
X136245113Y-88777506D01*
X136245113Y-88777506D02*
X136340351Y-88729887D01*
X136340351Y-88729887D02*
X136483208Y-88729887D01*
X136483208Y-88729887D02*
X136578446Y-88777506D01*
X136578446Y-88777506D02*
X136626065Y-88825125D01*
X136626065Y-88825125D02*
X136673684Y-88920363D01*
X136673684Y-88920363D02*
X136673684Y-89301315D01*
X136149875Y-88396553D02*
X136149875Y-87729887D01*
X136149875Y-87729887D02*
X137149875Y-88396553D01*
X137149875Y-88396553D02*
X137149875Y-87729887D01*
X136626065Y-87348934D02*
X136626065Y-87015601D01*
X137149875Y-86872744D02*
X137149875Y-87348934D01*
X137149875Y-87348934D02*
X136149875Y-87348934D01*
X136149875Y-87348934D02*
X136149875Y-86872744D01*
X137149875Y-86444172D02*
X136149875Y-86444172D01*
X136149875Y-86110839D02*
X136149875Y-85539411D01*
X137149875Y-85825125D02*
X136149875Y-85825125D01*
X137054636Y-83872744D02*
X137102256Y-83920363D01*
X137102256Y-83920363D02*
X137149875Y-84063220D01*
X137149875Y-84063220D02*
X137149875Y-84158458D01*
X137149875Y-84158458D02*
X137102256Y-84301315D01*
X137102256Y-84301315D02*
X137007017Y-84396553D01*
X137007017Y-84396553D02*
X136911779Y-84444172D01*
X136911779Y-84444172D02*
X136721303Y-84491791D01*
X136721303Y-84491791D02*
X136578446Y-84491791D01*
X136578446Y-84491791D02*
X136387970Y-84444172D01*
X136387970Y-84444172D02*
X136292732Y-84396553D01*
X136292732Y-84396553D02*
X136197494Y-84301315D01*
X136197494Y-84301315D02*
X136149875Y-84158458D01*
X136149875Y-84158458D02*
X136149875Y-84063220D01*
X136149875Y-84063220D02*
X136197494Y-83920363D01*
X136197494Y-83920363D02*
X136245113Y-83872744D01*
X136149875Y-83253696D02*
X136149875Y-83063220D01*
X136149875Y-83063220D02*
X136197494Y-82967982D01*
X136197494Y-82967982D02*
X136292732Y-82872744D01*
X136292732Y-82872744D02*
X136483208Y-82825125D01*
X136483208Y-82825125D02*
X136816541Y-82825125D01*
X136816541Y-82825125D02*
X137007017Y-82872744D01*
X137007017Y-82872744D02*
X137102256Y-82967982D01*
X137102256Y-82967982D02*
X137149875Y-83063220D01*
X137149875Y-83063220D02*
X137149875Y-83253696D01*
X137149875Y-83253696D02*
X137102256Y-83348934D01*
X137102256Y-83348934D02*
X137007017Y-83444172D01*
X137007017Y-83444172D02*
X136816541Y-83491791D01*
X136816541Y-83491791D02*
X136483208Y-83491791D01*
X136483208Y-83491791D02*
X136292732Y-83444172D01*
X136292732Y-83444172D02*
X136197494Y-83348934D01*
X136197494Y-83348934D02*
X136149875Y-83253696D01*
X137149875Y-82396553D02*
X136149875Y-82396553D01*
X136149875Y-82396553D02*
X137149875Y-81825125D01*
X137149875Y-81825125D02*
X136149875Y-81825125D01*
X136149875Y-81491791D02*
X136149875Y-80920363D01*
X137149875Y-81206077D02*
X136149875Y-81206077D01*
X137149875Y-80015601D02*
X136673684Y-80348934D01*
X137149875Y-80587029D02*
X136149875Y-80587029D01*
X136149875Y-80587029D02*
X136149875Y-80206077D01*
X136149875Y-80206077D02*
X136197494Y-80110839D01*
X136197494Y-80110839D02*
X136245113Y-80063220D01*
X136245113Y-80063220D02*
X136340351Y-80015601D01*
X136340351Y-80015601D02*
X136483208Y-80015601D01*
X136483208Y-80015601D02*
X136578446Y-80063220D01*
X136578446Y-80063220D02*
X136626065Y-80110839D01*
X136626065Y-80110839D02*
X136673684Y-80206077D01*
X136673684Y-80206077D02*
X136673684Y-80587029D01*
X136149875Y-79396553D02*
X136149875Y-79206077D01*
X136149875Y-79206077D02*
X136197494Y-79110839D01*
X136197494Y-79110839D02*
X136292732Y-79015601D01*
X136292732Y-79015601D02*
X136483208Y-78967982D01*
X136483208Y-78967982D02*
X136816541Y-78967982D01*
X136816541Y-78967982D02*
X137007017Y-79015601D01*
X137007017Y-79015601D02*
X137102256Y-79110839D01*
X137102256Y-79110839D02*
X137149875Y-79206077D01*
X137149875Y-79206077D02*
X137149875Y-79396553D01*
X137149875Y-79396553D02*
X137102256Y-79491791D01*
X137102256Y-79491791D02*
X137007017Y-79587029D01*
X137007017Y-79587029D02*
X136816541Y-79634648D01*
X136816541Y-79634648D02*
X136483208Y-79634648D01*
X136483208Y-79634648D02*
X136292732Y-79587029D01*
X136292732Y-79587029D02*
X136197494Y-79491791D01*
X136197494Y-79491791D02*
X136149875Y-79396553D01*
X137149875Y-78063220D02*
X137149875Y-78539410D01*
X137149875Y-78539410D02*
X136149875Y-78539410D01*
X137149875Y-77253696D02*
X137149875Y-77729886D01*
X137149875Y-77729886D02*
X136149875Y-77729886D01*
X136626065Y-76920362D02*
X136626065Y-76587029D01*
X137149875Y-76444172D02*
X137149875Y-76920362D01*
X137149875Y-76920362D02*
X136149875Y-76920362D01*
X136149875Y-76920362D02*
X136149875Y-76444172D01*
X137149875Y-75444172D02*
X136673684Y-75777505D01*
X137149875Y-76015600D02*
X136149875Y-76015600D01*
X136149875Y-76015600D02*
X136149875Y-75634648D01*
X136149875Y-75634648D02*
X136197494Y-75539410D01*
X136197494Y-75539410D02*
X136245113Y-75491791D01*
X136245113Y-75491791D02*
X136340351Y-75444172D01*
X136340351Y-75444172D02*
X136483208Y-75444172D01*
X136483208Y-75444172D02*
X136578446Y-75491791D01*
X136578446Y-75491791D02*
X136626065Y-75539410D01*
X136626065Y-75539410D02*
X136673684Y-75634648D01*
X136673684Y-75634648D02*
X136673684Y-76015600D01*
X137149875Y-74253695D02*
X136149875Y-74253695D01*
X136149875Y-74253695D02*
X136149875Y-73872743D01*
X136149875Y-73872743D02*
X136197494Y-73777505D01*
X136197494Y-73777505D02*
X136245113Y-73729886D01*
X136245113Y-73729886D02*
X136340351Y-73682267D01*
X136340351Y-73682267D02*
X136483208Y-73682267D01*
X136483208Y-73682267D02*
X136578446Y-73729886D01*
X136578446Y-73729886D02*
X136626065Y-73777505D01*
X136626065Y-73777505D02*
X136673684Y-73872743D01*
X136673684Y-73872743D02*
X136673684Y-74253695D01*
X137149875Y-73253695D02*
X136149875Y-73253695D01*
X136149875Y-72872743D02*
X137149875Y-72206077D01*
X136149875Y-72206077D02*
X137149875Y-72872743D01*
X136626065Y-71825124D02*
X136626065Y-71491791D01*
X137149875Y-71348934D02*
X137149875Y-71825124D01*
X137149875Y-71825124D02*
X136149875Y-71825124D01*
X136149875Y-71825124D02*
X136149875Y-71348934D01*
X137149875Y-70444172D02*
X137149875Y-70920362D01*
X137149875Y-70920362D02*
X136149875Y-70920362D01*
X137149875Y-69348933D02*
X136149875Y-69348933D01*
X137149875Y-68872743D02*
X136149875Y-68872743D01*
X136149875Y-68872743D02*
X137149875Y-68301315D01*
X137149875Y-68301315D02*
X136149875Y-68301315D01*
X136149875Y-67967981D02*
X136149875Y-67396553D01*
X137149875Y-67682267D02*
X136149875Y-67682267D01*
X136626065Y-67063219D02*
X136626065Y-66729886D01*
X137149875Y-66587029D02*
X137149875Y-67063219D01*
X137149875Y-67063219D02*
X136149875Y-67063219D01*
X136149875Y-67063219D02*
X136149875Y-66587029D01*
X137149875Y-65587029D02*
X136673684Y-65920362D01*
X137149875Y-66158457D02*
X136149875Y-66158457D01*
X136149875Y-66158457D02*
X136149875Y-65777505D01*
X136149875Y-65777505D02*
X136197494Y-65682267D01*
X136197494Y-65682267D02*
X136245113Y-65634648D01*
X136245113Y-65634648D02*
X136340351Y-65587029D01*
X136340351Y-65587029D02*
X136483208Y-65587029D01*
X136483208Y-65587029D02*
X136578446Y-65634648D01*
X136578446Y-65634648D02*
X136626065Y-65682267D01*
X136626065Y-65682267D02*
X136673684Y-65777505D01*
X136673684Y-65777505D02*
X136673684Y-66158457D01*
X136626065Y-64825124D02*
X136626065Y-65158457D01*
X137149875Y-65158457D02*
X136149875Y-65158457D01*
X136149875Y-65158457D02*
X136149875Y-64682267D01*
X136864160Y-64348933D02*
X136864160Y-63872743D01*
X137149875Y-64444171D02*
X136149875Y-64110838D01*
X136149875Y-64110838D02*
X137149875Y-63777505D01*
X137054636Y-62872743D02*
X137102256Y-62920362D01*
X137102256Y-62920362D02*
X137149875Y-63063219D01*
X137149875Y-63063219D02*
X137149875Y-63158457D01*
X137149875Y-63158457D02*
X137102256Y-63301314D01*
X137102256Y-63301314D02*
X137007017Y-63396552D01*
X137007017Y-63396552D02*
X136911779Y-63444171D01*
X136911779Y-63444171D02*
X136721303Y-63491790D01*
X136721303Y-63491790D02*
X136578446Y-63491790D01*
X136578446Y-63491790D02*
X136387970Y-63444171D01*
X136387970Y-63444171D02*
X136292732Y-63396552D01*
X136292732Y-63396552D02*
X136197494Y-63301314D01*
X136197494Y-63301314D02*
X136149875Y-63158457D01*
X136149875Y-63158457D02*
X136149875Y-63063219D01*
X136149875Y-63063219D02*
X136197494Y-62920362D01*
X136197494Y-62920362D02*
X136245113Y-62872743D01*
X136626065Y-62444171D02*
X136626065Y-62110838D01*
X137149875Y-61967981D02*
X137149875Y-62444171D01*
X137149875Y-62444171D02*
X136149875Y-62444171D01*
X136149875Y-62444171D02*
X136149875Y-61967981D01*
X137759819Y-92206077D02*
X138759819Y-91872744D01*
X138759819Y-91872744D02*
X137759819Y-91539411D01*
X137759819Y-91301315D02*
X137759819Y-90682268D01*
X137759819Y-90682268D02*
X138140771Y-91015601D01*
X138140771Y-91015601D02*
X138140771Y-90872744D01*
X138140771Y-90872744D02*
X138188390Y-90777506D01*
X138188390Y-90777506D02*
X138236009Y-90729887D01*
X138236009Y-90729887D02*
X138331247Y-90682268D01*
X138331247Y-90682268D02*
X138569342Y-90682268D01*
X138569342Y-90682268D02*
X138664580Y-90729887D01*
X138664580Y-90729887D02*
X138712200Y-90777506D01*
X138712200Y-90777506D02*
X138759819Y-90872744D01*
X138759819Y-90872744D02*
X138759819Y-91158458D01*
X138759819Y-91158458D02*
X138712200Y-91253696D01*
X138712200Y-91253696D02*
X138664580Y-91301315D01*
X138712200Y-90206077D02*
X138759819Y-90206077D01*
X138759819Y-90206077D02*
X138855057Y-90253696D01*
X138855057Y-90253696D02*
X138902676Y-90301315D01*
X138759819Y-89015601D02*
X137759819Y-89015601D01*
X137759819Y-89015601D02*
X138474104Y-88682268D01*
X138474104Y-88682268D02*
X137759819Y-88348935D01*
X137759819Y-88348935D02*
X138759819Y-88348935D01*
X138759819Y-87444173D02*
X138236009Y-87444173D01*
X138236009Y-87444173D02*
X138140771Y-87491792D01*
X138140771Y-87491792D02*
X138093152Y-87587030D01*
X138093152Y-87587030D02*
X138093152Y-87777506D01*
X138093152Y-87777506D02*
X138140771Y-87872744D01*
X138712200Y-87444173D02*
X138759819Y-87539411D01*
X138759819Y-87539411D02*
X138759819Y-87777506D01*
X138759819Y-87777506D02*
X138712200Y-87872744D01*
X138712200Y-87872744D02*
X138616961Y-87920363D01*
X138616961Y-87920363D02*
X138521723Y-87920363D01*
X138521723Y-87920363D02*
X138426485Y-87872744D01*
X138426485Y-87872744D02*
X138378866Y-87777506D01*
X138378866Y-87777506D02*
X138378866Y-87539411D01*
X138378866Y-87539411D02*
X138331247Y-87444173D01*
X138093152Y-87063220D02*
X138759819Y-86825125D01*
X138093152Y-86587030D02*
X138759819Y-86825125D01*
X138759819Y-86825125D02*
X138997914Y-86920363D01*
X138997914Y-86920363D02*
X139045533Y-86967982D01*
X139045533Y-86967982D02*
X139093152Y-87063220D01*
X137855057Y-85491791D02*
X137807438Y-85444172D01*
X137807438Y-85444172D02*
X137759819Y-85348934D01*
X137759819Y-85348934D02*
X137759819Y-85110839D01*
X137759819Y-85110839D02*
X137807438Y-85015601D01*
X137807438Y-85015601D02*
X137855057Y-84967982D01*
X137855057Y-84967982D02*
X137950295Y-84920363D01*
X137950295Y-84920363D02*
X138045533Y-84920363D01*
X138045533Y-84920363D02*
X138188390Y-84967982D01*
X138188390Y-84967982D02*
X138759819Y-85539410D01*
X138759819Y-85539410D02*
X138759819Y-84920363D01*
X137759819Y-84301315D02*
X137759819Y-84206077D01*
X137759819Y-84206077D02*
X137807438Y-84110839D01*
X137807438Y-84110839D02*
X137855057Y-84063220D01*
X137855057Y-84063220D02*
X137950295Y-84015601D01*
X137950295Y-84015601D02*
X138140771Y-83967982D01*
X138140771Y-83967982D02*
X138378866Y-83967982D01*
X138378866Y-83967982D02*
X138569342Y-84015601D01*
X138569342Y-84015601D02*
X138664580Y-84063220D01*
X138664580Y-84063220D02*
X138712200Y-84110839D01*
X138712200Y-84110839D02*
X138759819Y-84206077D01*
X138759819Y-84206077D02*
X138759819Y-84301315D01*
X138759819Y-84301315D02*
X138712200Y-84396553D01*
X138712200Y-84396553D02*
X138664580Y-84444172D01*
X138664580Y-84444172D02*
X138569342Y-84491791D01*
X138569342Y-84491791D02*
X138378866Y-84539410D01*
X138378866Y-84539410D02*
X138140771Y-84539410D01*
X138140771Y-84539410D02*
X137950295Y-84491791D01*
X137950295Y-84491791D02*
X137855057Y-84444172D01*
X137855057Y-84444172D02*
X137807438Y-84396553D01*
X137807438Y-84396553D02*
X137759819Y-84301315D01*
X137855057Y-83587029D02*
X137807438Y-83539410D01*
X137807438Y-83539410D02*
X137759819Y-83444172D01*
X137759819Y-83444172D02*
X137759819Y-83206077D01*
X137759819Y-83206077D02*
X137807438Y-83110839D01*
X137807438Y-83110839D02*
X137855057Y-83063220D01*
X137855057Y-83063220D02*
X137950295Y-83015601D01*
X137950295Y-83015601D02*
X138045533Y-83015601D01*
X138045533Y-83015601D02*
X138188390Y-83063220D01*
X138188390Y-83063220D02*
X138759819Y-83634648D01*
X138759819Y-83634648D02*
X138759819Y-83015601D01*
X137759819Y-82158458D02*
X137759819Y-82348934D01*
X137759819Y-82348934D02*
X137807438Y-82444172D01*
X137807438Y-82444172D02*
X137855057Y-82491791D01*
X137855057Y-82491791D02*
X137997914Y-82587029D01*
X137997914Y-82587029D02*
X138188390Y-82634648D01*
X138188390Y-82634648D02*
X138569342Y-82634648D01*
X138569342Y-82634648D02*
X138664580Y-82587029D01*
X138664580Y-82587029D02*
X138712200Y-82539410D01*
X138712200Y-82539410D02*
X138759819Y-82444172D01*
X138759819Y-82444172D02*
X138759819Y-82253696D01*
X138759819Y-82253696D02*
X138712200Y-82158458D01*
X138712200Y-82158458D02*
X138664580Y-82110839D01*
X138664580Y-82110839D02*
X138569342Y-82063220D01*
X138569342Y-82063220D02*
X138331247Y-82063220D01*
X138331247Y-82063220D02*
X138236009Y-82110839D01*
X138236009Y-82110839D02*
X138188390Y-82158458D01*
X138188390Y-82158458D02*
X138140771Y-82253696D01*
X138140771Y-82253696D02*
X138140771Y-82444172D01*
X138140771Y-82444172D02*
X138188390Y-82539410D01*
X138188390Y-82539410D02*
X138236009Y-82587029D01*
X138236009Y-82587029D02*
X138331247Y-82634648D01*
D11*
X141140149Y-65890600D02*
X141311578Y-65947742D01*
X141311578Y-65947742D02*
X141597292Y-65947742D01*
X141597292Y-65947742D02*
X141711578Y-65890600D01*
X141711578Y-65890600D02*
X141768720Y-65833457D01*
X141768720Y-65833457D02*
X141825863Y-65719171D01*
X141825863Y-65719171D02*
X141825863Y-65604885D01*
X141825863Y-65604885D02*
X141768720Y-65490600D01*
X141768720Y-65490600D02*
X141711578Y-65433457D01*
X141711578Y-65433457D02*
X141597292Y-65376314D01*
X141597292Y-65376314D02*
X141368720Y-65319171D01*
X141368720Y-65319171D02*
X141254435Y-65262028D01*
X141254435Y-65262028D02*
X141197292Y-65204885D01*
X141197292Y-65204885D02*
X141140149Y-65090600D01*
X141140149Y-65090600D02*
X141140149Y-64976314D01*
X141140149Y-64976314D02*
X141197292Y-64862028D01*
X141197292Y-64862028D02*
X141254435Y-64804885D01*
X141254435Y-64804885D02*
X141368720Y-64747742D01*
X141368720Y-64747742D02*
X141654435Y-64747742D01*
X141654435Y-64747742D02*
X141825863Y-64804885D01*
X142168720Y-64747742D02*
X142854435Y-64747742D01*
X142511577Y-65947742D02*
X142511577Y-64747742D01*
X143197292Y-65604885D02*
X143768721Y-65604885D01*
X143083006Y-65947742D02*
X143483006Y-64747742D01*
X143483006Y-64747742D02*
X143883006Y-65947742D01*
X144111577Y-64747742D02*
X144797292Y-64747742D01*
X144454434Y-65947742D02*
X144454434Y-64747742D01*
X145197292Y-64747742D02*
X145197292Y-65719171D01*
X145197292Y-65719171D02*
X145254435Y-65833457D01*
X145254435Y-65833457D02*
X145311578Y-65890600D01*
X145311578Y-65890600D02*
X145425863Y-65947742D01*
X145425863Y-65947742D02*
X145654435Y-65947742D01*
X145654435Y-65947742D02*
X145768720Y-65890600D01*
X145768720Y-65890600D02*
X145825863Y-65833457D01*
X145825863Y-65833457D02*
X145883006Y-65719171D01*
X145883006Y-65719171D02*
X145883006Y-64747742D01*
X146397292Y-65890600D02*
X146568721Y-65947742D01*
X146568721Y-65947742D02*
X146854435Y-65947742D01*
X146854435Y-65947742D02*
X146968721Y-65890600D01*
X146968721Y-65890600D02*
X147025863Y-65833457D01*
X147025863Y-65833457D02*
X147083006Y-65719171D01*
X147083006Y-65719171D02*
X147083006Y-65604885D01*
X147083006Y-65604885D02*
X147025863Y-65490600D01*
X147025863Y-65490600D02*
X146968721Y-65433457D01*
X146968721Y-65433457D02*
X146854435Y-65376314D01*
X146854435Y-65376314D02*
X146625863Y-65319171D01*
X146625863Y-65319171D02*
X146511578Y-65262028D01*
X146511578Y-65262028D02*
X146454435Y-65204885D01*
X146454435Y-65204885D02*
X146397292Y-65090600D01*
X146397292Y-65090600D02*
X146397292Y-64976314D01*
X146397292Y-64976314D02*
X146454435Y-64862028D01*
X146454435Y-64862028D02*
X146511578Y-64804885D01*
X146511578Y-64804885D02*
X146625863Y-64747742D01*
X146625863Y-64747742D02*
X146911578Y-64747742D01*
X146911578Y-64747742D02*
X147083006Y-64804885D01*
D10*
X146476666Y-51674819D02*
X146476666Y-52389104D01*
X146476666Y-52389104D02*
X146429047Y-52531961D01*
X146429047Y-52531961D02*
X146333809Y-52627200D01*
X146333809Y-52627200D02*
X146190952Y-52674819D01*
X146190952Y-52674819D02*
X146095714Y-52674819D01*
X146857619Y-51674819D02*
X147476666Y-51674819D01*
X147476666Y-51674819D02*
X147143333Y-52055771D01*
X147143333Y-52055771D02*
X147286190Y-52055771D01*
X147286190Y-52055771D02*
X147381428Y-52103390D01*
X147381428Y-52103390D02*
X147429047Y-52151009D01*
X147429047Y-52151009D02*
X147476666Y-52246247D01*
X147476666Y-52246247D02*
X147476666Y-52484342D01*
X147476666Y-52484342D02*
X147429047Y-52579580D01*
X147429047Y-52579580D02*
X147381428Y-52627200D01*
X147381428Y-52627200D02*
X147286190Y-52674819D01*
X147286190Y-52674819D02*
X147000476Y-52674819D01*
X147000476Y-52674819D02*
X146905238Y-52627200D01*
X146905238Y-52627200D02*
X146857619Y-52579580D01*
X156716666Y-66694819D02*
X156716666Y-67409104D01*
X156716666Y-67409104D02*
X156669047Y-67551961D01*
X156669047Y-67551961D02*
X156573809Y-67647200D01*
X156573809Y-67647200D02*
X156430952Y-67694819D01*
X156430952Y-67694819D02*
X156335714Y-67694819D01*
X157669047Y-66694819D02*
X157192857Y-66694819D01*
X157192857Y-66694819D02*
X157145238Y-67171009D01*
X157145238Y-67171009D02*
X157192857Y-67123390D01*
X157192857Y-67123390D02*
X157288095Y-67075771D01*
X157288095Y-67075771D02*
X157526190Y-67075771D01*
X157526190Y-67075771D02*
X157621428Y-67123390D01*
X157621428Y-67123390D02*
X157669047Y-67171009D01*
X157669047Y-67171009D02*
X157716666Y-67266247D01*
X157716666Y-67266247D02*
X157716666Y-67504342D01*
X157716666Y-67504342D02*
X157669047Y-67599580D01*
X157669047Y-67599580D02*
X157621428Y-67647200D01*
X157621428Y-67647200D02*
X157526190Y-67694819D01*
X157526190Y-67694819D02*
X157288095Y-67694819D01*
X157288095Y-67694819D02*
X157192857Y-67647200D01*
X157192857Y-67647200D02*
X157145238Y-67599580D01*
X157372857Y-82978628D02*
X157372857Y-83454819D01*
X157039524Y-82454819D02*
X157372857Y-82978628D01*
X157372857Y-82978628D02*
X157706190Y-82454819D01*
X158230000Y-82978628D02*
X158230000Y-83454819D01*
X157896667Y-82454819D02*
X158230000Y-82978628D01*
X158230000Y-82978628D02*
X158563333Y-82454819D01*
X158801429Y-82454819D02*
X159468095Y-82454819D01*
X159468095Y-82454819D02*
X158801429Y-83454819D01*
X158801429Y-83454819D02*
X159468095Y-83454819D01*
X159610953Y-83550057D02*
X160372857Y-83550057D01*
X160610953Y-83454819D02*
X160610953Y-82454819D01*
X160610953Y-82454819D02*
X160991905Y-82454819D01*
X160991905Y-82454819D02*
X161087143Y-82502438D01*
X161087143Y-82502438D02*
X161134762Y-82550057D01*
X161134762Y-82550057D02*
X161182381Y-82645295D01*
X161182381Y-82645295D02*
X161182381Y-82788152D01*
X161182381Y-82788152D02*
X161134762Y-82883390D01*
X161134762Y-82883390D02*
X161087143Y-82931009D01*
X161087143Y-82931009D02*
X160991905Y-82978628D01*
X160991905Y-82978628D02*
X160610953Y-82978628D01*
X161610953Y-83454819D02*
X161610953Y-82454819D01*
X161991905Y-82454819D02*
X162658571Y-83454819D01*
X162658571Y-82454819D02*
X161991905Y-83454819D01*
X163039524Y-82931009D02*
X163372857Y-82931009D01*
X163515714Y-83454819D02*
X163039524Y-83454819D01*
X163039524Y-83454819D02*
X163039524Y-82454819D01*
X163039524Y-82454819D02*
X163515714Y-82454819D01*
X164420476Y-83454819D02*
X163944286Y-83454819D01*
X163944286Y-83454819D02*
X163944286Y-82454819D01*
X139086666Y-51194819D02*
X139086666Y-51909104D01*
X139086666Y-51909104D02*
X139039047Y-52051961D01*
X139039047Y-52051961D02*
X138943809Y-52147200D01*
X138943809Y-52147200D02*
X138800952Y-52194819D01*
X138800952Y-52194819D02*
X138705714Y-52194819D01*
X139991428Y-51528152D02*
X139991428Y-52194819D01*
X139753333Y-51147200D02*
X139515238Y-51861485D01*
X139515238Y-51861485D02*
X140134285Y-51861485D01*
X144884819Y-74249166D02*
X144408628Y-74582499D01*
X144884819Y-74820594D02*
X143884819Y-74820594D01*
X143884819Y-74820594D02*
X143884819Y-74439642D01*
X143884819Y-74439642D02*
X143932438Y-74344404D01*
X143932438Y-74344404D02*
X143980057Y-74296785D01*
X143980057Y-74296785D02*
X144075295Y-74249166D01*
X144075295Y-74249166D02*
X144218152Y-74249166D01*
X144218152Y-74249166D02*
X144313390Y-74296785D01*
X144313390Y-74296785D02*
X144361009Y-74344404D01*
X144361009Y-74344404D02*
X144408628Y-74439642D01*
X144408628Y-74439642D02*
X144408628Y-74820594D01*
X144884819Y-73296785D02*
X144884819Y-73868213D01*
X144884819Y-73582499D02*
X143884819Y-73582499D01*
X143884819Y-73582499D02*
X144027676Y-73677737D01*
X144027676Y-73677737D02*
X144122914Y-73772975D01*
X144122914Y-73772975D02*
X144170533Y-73868213D01*
X142436666Y-92104819D02*
X142436666Y-92819104D01*
X142436666Y-92819104D02*
X142389047Y-92961961D01*
X142389047Y-92961961D02*
X142293809Y-93057200D01*
X142293809Y-93057200D02*
X142150952Y-93104819D01*
X142150952Y-93104819D02*
X142055714Y-93104819D01*
X142865238Y-92200057D02*
X142912857Y-92152438D01*
X142912857Y-92152438D02*
X143008095Y-92104819D01*
X143008095Y-92104819D02*
X143246190Y-92104819D01*
X143246190Y-92104819D02*
X143341428Y-92152438D01*
X143341428Y-92152438D02*
X143389047Y-92200057D01*
X143389047Y-92200057D02*
X143436666Y-92295295D01*
X143436666Y-92295295D02*
X143436666Y-92390533D01*
X143436666Y-92390533D02*
X143389047Y-92533390D01*
X143389047Y-92533390D02*
X142817619Y-93104819D01*
X142817619Y-93104819D02*
X143436666Y-93104819D01*
%TO.C,J1*%
D12*
X149470000Y-96130000D02*
X150800000Y-96130000D01*
X149470000Y-97460000D02*
X149470000Y-96130000D01*
X152070000Y-96130000D02*
X164830000Y-96130000D01*
X152070000Y-98790000D02*
X152070000Y-96130000D01*
X152070000Y-98790000D02*
X164830000Y-98790000D01*
X164830000Y-98790000D02*
X164830000Y-96130000D01*
%TO.C,J3*%
X144390000Y-47870000D02*
X145720000Y-47870000D01*
X144390000Y-49200000D02*
X144390000Y-47870000D01*
X146990000Y-47870000D02*
X164830000Y-47870000D01*
X146990000Y-50530000D02*
X146990000Y-47870000D01*
X146990000Y-50530000D02*
X164830000Y-50530000D01*
X164830000Y-50530000D02*
X164830000Y-47870000D01*
%TO.C,D1*%
X142305000Y-67674000D02*
X142305000Y-67830000D01*
X142305000Y-69990000D02*
X142305000Y-70146000D01*
X142305000Y-67674484D02*
G75*
G02*
X145536437Y-67830000I1560000J-1235516D01*
G01*
X142824039Y-67830000D02*
G75*
G02*
X144905961Y-67830000I1040961J-1080000D01*
G01*
X144905961Y-69990000D02*
G75*
G02*
X142824039Y-69990000I-1040961J1080000D01*
G01*
X145536437Y-69990000D02*
G75*
G02*
X142305000Y-70145516I-1671437J1080000D01*
G01*
%TO.C,J5*%
X154220000Y-68810000D02*
X155490000Y-68810000D01*
X154220000Y-70080000D02*
X154220000Y-68810000D01*
X156567358Y-72190000D02*
X156952642Y-72190000D01*
X156567358Y-73050000D02*
X156952642Y-73050000D01*
X156567358Y-74730000D02*
X156952642Y-74730000D01*
X156567358Y-75590000D02*
X156952642Y-75590000D01*
X156567358Y-77270000D02*
X156952642Y-77270000D01*
X156567358Y-78130000D02*
X156952642Y-78130000D01*
X156567358Y-79810000D02*
X156952642Y-79810000D01*
X156567358Y-80670000D02*
X156952642Y-80670000D01*
X156650000Y-69650000D02*
X156952642Y-69650000D01*
X156650000Y-70510000D02*
X156952642Y-70510000D01*
X159107358Y-69650000D02*
X159420000Y-69650000D01*
X159107358Y-70510000D02*
X159420000Y-70510000D01*
X159107358Y-72190000D02*
X159420000Y-72190000D01*
X159107358Y-73050000D02*
X159420000Y-73050000D01*
X159107358Y-74730000D02*
X159420000Y-74730000D01*
X159107358Y-75590000D02*
X159420000Y-75590000D01*
X159107358Y-77270000D02*
X159420000Y-77270000D01*
X159107358Y-78130000D02*
X159420000Y-78130000D01*
X159107358Y-79810000D02*
X159420000Y-79810000D01*
X159107358Y-80670000D02*
X159420000Y-80670000D01*
X159420000Y-71350000D02*
X162180000Y-71350000D01*
X159420000Y-73890000D02*
X162180000Y-73890000D01*
X159420000Y-76430000D02*
X162180000Y-76430000D01*
X159420000Y-78970000D02*
X162180000Y-78970000D01*
X162180000Y-72190000D02*
X168180000Y-72190000D01*
X162180000Y-74730000D02*
X168180000Y-74730000D01*
X162180000Y-77270000D02*
X168180000Y-77270000D01*
X162180000Y-79810000D02*
X168180000Y-79810000D01*
X168180000Y-72190000D02*
X168180000Y-73050000D01*
X168180000Y-73050000D02*
X162180000Y-73050000D01*
X168180000Y-74730000D02*
X168180000Y-75590000D01*
X168180000Y-75590000D02*
X162180000Y-75590000D01*
X168180000Y-77270000D02*
X168180000Y-78130000D01*
X168180000Y-78130000D02*
X162180000Y-78130000D01*
X168180000Y-79810000D02*
X168180000Y-80670000D01*
X168180000Y-80670000D02*
X162180000Y-80670000D01*
X159420000Y-68700000D02*
X162180000Y-68700000D01*
X162180000Y-81620000D01*
X159420000Y-81620000D01*
X159420000Y-68700000D01*
X162180000Y-69650000D02*
X168180000Y-69650000D01*
X168180000Y-70510000D01*
X162180000Y-70510000D01*
X162180000Y-69650000D01*
G36*
X162180000Y-69650000D02*
G01*
X168180000Y-69650000D01*
X168180000Y-70510000D01*
X162180000Y-70510000D01*
X162180000Y-69650000D01*
G37*
%TO.C,J4*%
X135250000Y-47760000D02*
X136580000Y-47760000D01*
X135250000Y-49090000D02*
X135250000Y-47760000D01*
X137850000Y-47760000D02*
X142990000Y-47760000D01*
X137850000Y-50420000D02*
X137850000Y-47760000D01*
X137850000Y-50420000D02*
X142990000Y-50420000D01*
X142990000Y-50420000D02*
X142990000Y-47760000D01*
%TO.C,R1*%
X141465000Y-71622500D02*
X141465000Y-75682500D01*
X143735000Y-71622500D02*
X141465000Y-71622500D01*
X143735000Y-75682500D02*
X143735000Y-71622500D01*
%TO.C,J2*%
X136770000Y-96130000D02*
X138100000Y-96130000D01*
X136770000Y-97460000D02*
X136770000Y-96130000D01*
X139370000Y-96130000D02*
X147050000Y-96130000D01*
X139370000Y-98790000D02*
X139370000Y-96130000D01*
X139370000Y-98790000D02*
X147050000Y-98790000D01*
X147050000Y-98790000D02*
X147050000Y-96130000D01*
%TD*%
M02*
