M48
; DRILL file KiCad 10.0.0 date 2026-04-08T13:20:19
; FORMAT={-:-/ absolute / metric / decimal}
; #@! TF.CreationDate,2026-04-08T13:20:19-07:00
; #@! TF.GenerationSoftware,Kicad,Pcbnew,10.0.0
; #@! TF.FileFunction,Plated,1,2,PTH
FMAT,2
METRIC
; #@! TA.AperFunction,Plated,PTH,ViaDrill
T1C0.300
; #@! TA.AperFunction,Plated,PTH,ComponentDrill
T2C1.000
; #@! TA.AperFunction,Plated,PTH,ComponentDrill
T3C1.700
%
G90
G05
T1
X39.9Y-69.8
X49.345Y-100.03
X49.345Y-103.53
X49.345Y-107.03
X49.345Y-110.53
X49.345Y-114.03
X49.345Y-117.53
X49.345Y-121.03
X49.345Y-124.53
X49.395Y-37.775
X49.395Y-41.275
X49.395Y-44.775
X49.395Y-48.275
X49.395Y-51.775
X49.395Y-55.275
X49.395Y-58.775
X49.395Y-62.275
X49.395Y-68.807
X49.395Y-72.307
X49.395Y-75.807
X49.395Y-79.307
X49.395Y-82.807
X49.395Y-86.307
X49.395Y-89.807
X49.395Y-93.3
X52.445Y-67.507
X53.6Y-49.1
X53.6Y-80.1
X53.6Y-111.3
X54.2Y-125.4
X54.3Y-62.1
X54.3Y-93.2
X55.0Y-78.9
X55.045Y-98.73
X55.095Y-36.475
X55.095Y-67.507
X55.2Y-110.1
X55.3Y-47.9
X55.6Y-123.4
X55.795Y-115.68
X55.8Y-92.1
X55.845Y-53.425
X55.845Y-84.457
X55.9Y-61.1
X56.509Y-85.715
X56.545Y-117.18
X56.595Y-54.925
X57.045Y-119.43
X57.095Y-57.175
X57.095Y-88.207
X57.8Y-92.2
X57.8Y-96.0
X58.4Y-61.1
X58.4Y-65.6
X58.645Y-114.53
X58.645Y-115.73
X58.645Y-117.18
X58.645Y-119.47
X58.695Y-52.275
X58.695Y-53.475
X58.695Y-54.925
X58.695Y-57.215
X58.695Y-83.307
X58.695Y-84.507
X58.695Y-85.7
X58.695Y-88.248
X59.045Y-98.73
X59.095Y-36.475
X59.095Y-67.507
X65.8Y-102.4
X65.8Y-110.2
X74.862Y-68.06
X74.862Y-71.56
X74.862Y-75.06
X74.862Y-78.56
X74.862Y-82.06
X74.862Y-85.56
X74.862Y-89.06
X74.862Y-92.56
X74.888Y-36.559
X74.888Y-40.059
X74.888Y-43.559
X74.888Y-47.059
X74.888Y-50.559
X74.888Y-54.059
X74.888Y-57.559
X74.888Y-61.059
X75.362Y-99.866
X75.362Y-103.366
X75.362Y-106.866
X75.362Y-110.366
X75.362Y-113.866
X75.362Y-117.366
X75.362Y-120.866
X75.362Y-124.366
X79.1Y-48.1
X79.1Y-79.4
X79.6Y-111.2
X79.7Y-61.1
X79.7Y-92.5
X80.2Y-125.3
X80.562Y-66.76
X80.587Y-35.259
X80.9Y-46.7
X81.0Y-78.2
X81.062Y-98.566
X81.3Y-59.9
X81.3Y-110.0
X81.312Y-83.71
X81.337Y-52.209
X81.6Y-91.4
X81.812Y-115.516
X81.9Y-123.2
X82.062Y-85.21
X82.087Y-53.709
X82.562Y-87.46
X82.562Y-117.016
X82.587Y-55.959
X83.0Y-64.0
X83.062Y-119.266
X83.8Y-95.2
X83.867Y-91.385
X83.892Y-59.884
X84.162Y-82.56
X84.162Y-83.76
X84.162Y-85.21
X84.162Y-87.5
X84.188Y-51.059
X84.188Y-52.259
X84.188Y-53.709
X84.188Y-55.999
X84.367Y-123.191
X84.562Y-66.76
X84.587Y-35.259
X84.662Y-114.366
X84.662Y-115.566
X84.662Y-117.016
X84.662Y-119.306
X85.062Y-98.566
X93.2Y-102.3
X93.2Y-109.8
X102.095Y-36.679
X102.095Y-40.179
X102.095Y-43.679
X102.095Y-47.179
X102.095Y-50.679
X102.095Y-54.179
X102.095Y-57.679
X102.095Y-61.179
X102.095Y-67.754
X102.095Y-71.254
X102.095Y-74.754
X102.095Y-78.254
X102.095Y-81.754
X102.095Y-85.254
X102.095Y-88.754
X102.095Y-92.254
X102.095Y-99.679
X102.095Y-103.179
X102.095Y-106.679
X102.095Y-110.179
X102.095Y-113.679
X102.095Y-117.179
X102.095Y-120.679
X102.095Y-124.179
X106.3Y-48.3
X106.3Y-111.0
X106.4Y-79.0
X106.9Y-61.2
X106.9Y-92.4
X106.9Y-124.2
X107.795Y-35.379
X107.795Y-66.454
X107.795Y-98.379
X108.0Y-77.8
X108.0Y-109.8
X108.2Y-46.8
X108.545Y-52.329
X108.545Y-83.404
X108.545Y-115.329
X108.6Y-60.0
X108.7Y-91.1
X108.9Y-123.0
X109.295Y-53.829
X109.295Y-84.904
X109.295Y-116.829
X109.795Y-56.079
X109.795Y-87.154
X109.795Y-119.079
X111.0Y-64.0
X111.1Y-60.004
X111.1Y-91.079
X111.2Y-95.2
X111.395Y-51.179
X111.395Y-52.379
X111.395Y-53.829
X111.395Y-56.119
X111.395Y-82.254
X111.395Y-83.454
X111.395Y-84.904
X111.395Y-87.194
X111.395Y-114.179
X111.395Y-115.379
X111.395Y-116.829
X111.395Y-119.119
X111.795Y-35.379
X111.795Y-66.454
X111.795Y-98.379
T2
X35.325Y-40.72
X35.325Y-43.26
X35.325Y-45.8
X35.325Y-48.34
X35.325Y-50.88
X37.865Y-40.72
X37.865Y-43.26
X37.865Y-45.8
X37.865Y-48.34
X37.865Y-50.88
X120.26Y-107.46
X120.26Y-110.0
X120.26Y-112.54
X120.26Y-115.08
X120.26Y-117.62
X122.8Y-107.46
X122.8Y-110.0
X122.8Y-112.54
X122.8Y-115.08
X122.8Y-117.62
T3
X35.95Y-78.0
X35.95Y-81.96
X123.6Y-77.84
X123.6Y-81.8
M30
